<svg width="33" height="32" viewBox="0 0 33 32" fill="none" xmlns="http://www.w3.org/2000/svg">
<mask id="mask0_1185_18015" style="mask-type:alpha" maskUnits="userSpaceOnUse" x="0" y="0" width="33" height="32">
<rect x="0.333374" width="32" height="32" fill="#D9D9D9"/>
</mask>
<g mask="url(#mask0_1185_18015)">
<path d="M16.3334 28C13.5334 28 11.0556 27.15 8.90004 25.45C6.74449 23.75 5.34449 21.5778 4.70004 18.9333C4.61115 18.6 4.67782 18.2944 4.90004 18.0167C5.12226 17.7389 5.42226 17.5778 5.80004 17.5333C6.1556 17.4889 6.47782 17.5556 6.76671 17.7333C7.0556 17.9111 7.2556 18.1778 7.36671 18.5333C7.90004 20.5333 9.00004 22.1667 10.6667 23.4333C12.3334 24.7 14.2223 25.3333 16.3334 25.3333C18.9334 25.3333 21.1389 24.4278 22.95 22.6167C24.7612 20.8056 25.6667 18.6 25.6667 16C25.6667 13.4 24.7612 11.1944 22.95 9.38333C21.1389 7.57222 18.9334 6.66667 16.3334 6.66667C14.8 6.66667 13.3667 7.02222 12.0334 7.73333C10.7 8.44444 9.57782 9.42222 8.66671 10.6667H11C11.3778 10.6667 11.6945 10.7944 11.95 11.05C12.2056 11.3056 12.3334 11.6222 12.3334 12C12.3334 12.3778 12.2056 12.6944 11.95 12.95C11.6945 13.2056 11.3778 13.3333 11 13.3333H5.66671C5.28893 13.3333 4.97226 13.2056 4.71671 12.95C4.46115 12.6944 4.33337 12.3778 4.33337 12V6.66667C4.33337 6.28889 4.46115 5.97222 4.71671 5.71667C4.97226 5.46111 5.28893 5.33333 5.66671 5.33333C6.04449 5.33333 6.36115 5.46111 6.61671 5.71667C6.87226 5.97222 7.00004 6.28889 7.00004 6.66667V8.46667C8.13337 7.04444 9.51671 5.94444 11.15 5.16667C12.7834 4.38889 14.5112 4 16.3334 4C18 4 19.5612 4.31667 21.0167 4.95C22.4723 5.58333 23.7389 6.43889 24.8167 7.51667C25.8945 8.59444 26.75 9.86111 27.3834 11.3167C28.0167 12.7722 28.3334 14.3333 28.3334 16C28.3334 17.6667 28.0167 19.2278 27.3834 20.6833C26.75 22.1389 25.8945 23.4056 24.8167 24.4833C23.7389 25.5611 22.4723 26.4167 21.0167 27.05C19.5612 27.6833 18 28 16.3334 28ZM17.6667 15.4667L21 18.8C21.2445 19.0444 21.3667 19.3556 21.3667 19.7333C21.3667 20.1111 21.2445 20.4222 21 20.6667C20.7556 20.9111 20.4445 21.0333 20.0667 21.0333C19.6889 21.0333 19.3778 20.9111 19.1334 20.6667L15.4 16.9333C15.2667 16.8 15.1667 16.65 15.1 16.4833C15.0334 16.3167 15 16.1444 15 15.9667V10.6667C15 10.2889 15.1278 9.97222 15.3834 9.71667C15.6389 9.46111 15.9556 9.33333 16.3334 9.33333C16.7112 9.33333 17.0278 9.46111 17.2834 9.71667C17.5389 9.97222 17.6667 10.2889 17.6667 10.6667V15.4667Z" fill="#1D251D"/>
</g>
</svg>
