<svg width="32" height="32" viewBox="0 0 32 32" fill="none" xmlns="http://www.w3.org/2000/svg">
<path d="M14.3681 30C12.9852 30 11.6355 29.7226 10.3565 29.176C7.87612 28.1156 5.96195 26.1638 4.9667 23.6802L4.9663 23.6792C3.97086 21.1946 4.01422 18.4756 5.08839 16.0232C5.69261 14.6436 6.61632 13.401 7.76422 12.4224C7.70088 10.9256 7.98541 9.4094 8.58963 8.0296C10.1941 4.3668 13.8402 2 17.8787 2C19.2606 2 20.6095 2.277 21.8877 2.823C21.8885 2.8234 21.8903 2.824 21.8903 2.824C24.3707 3.8844 26.2847 5.8362 27.2801 8.3198C28.276 10.8048 28.2328 13.524 27.1584 15.9768C26.5542 17.3564 25.6303 18.599 24.4826 19.5776C24.5461 21.0744 24.2616 22.5906 23.6572 23.9704C22.0525 27.6332 18.4064 30 14.3681 30ZM8.39582 15.496C8.02817 15.9722 7.71927 16.494 7.4749 17.0522C6.68526 18.8552 6.64989 20.8588 7.3758 22.6938C8.11149 24.5538 9.53573 26.0138 11.3864 26.805C12.3378 27.2118 13.3413 27.418 14.3689 27.418C17.3702 27.418 20.0792 25.6612 21.2707 22.9422L21.2711 22.9414C21.5138 22.3872 21.6867 21.8116 21.7868 21.225C20.5492 21.737 19.2039 22.006 17.8687 22.006C16.4863 22.006 15.137 21.7288 13.8584 21.1822C12.3738 20.5474 11.0523 19.561 10.037 18.3296C9.34591 17.4922 8.78365 16.52 8.39582 15.496ZM10.538 13.6158C11.0601 15.9316 12.6751 17.8656 14.8876 18.8116C15.8389 19.2184 16.8423 19.4246 17.8695 19.4246C19.2226 19.4246 20.5462 19.0654 21.7089 18.3846C21.1866 16.0688 19.5715 14.1348 17.3592 13.1888C16.4079 12.782 15.4047 12.5758 14.3773 12.5758C13.0242 12.5756 11.7007 12.9348 10.538 13.6158ZM14.3785 9.9938C15.761 9.9938 17.1103 10.271 18.389 10.8176C19.8736 11.4522 21.195 12.4386 22.2104 13.6702C22.9009 14.5078 23.4632 15.4798 23.8512 16.504C24.2189 16.0276 24.5278 15.5058 24.7721 14.9478C25.5682 13.1302 25.6003 11.115 24.8624 9.2738C24.1239 7.431 22.7029 5.9826 20.8609 5.195C19.9094 4.7882 18.9059 4.582 17.8783 4.582C14.8766 4.582 12.1674 6.3392 10.9763 9.0586C10.7336 9.6128 10.5607 10.1882 10.4606 10.775C11.6983 10.263 13.0434 9.9938 14.3785 9.9938Z" fill="#1D251D"/>
</svg>
