<svg width="25" height="24" viewBox="0 0 25 24" fill="none" xmlns="http://www.w3.org/2000/svg">
<mask id="mask0_1203_7650" style="mask-type:alpha" maskUnits="userSpaceOnUse" x="0" y="0" width="25" height="24">
<rect x="0.5" width="24" height="24" fill="#D9D9D9"/>
</mask>
<g mask="url(#mask0_1203_7650)">
<path d="M4.5 18C4.21667 18 3.97917 17.9042 3.7875 17.7125C3.59583 17.5208 3.5 17.2833 3.5 17C3.5 16.7167 3.59583 16.4792 3.7875 16.2875C3.97917 16.0958 4.21667 16 4.5 16H20.5C20.7833 16 21.0208 16.0958 21.2125 16.2875C21.4042 16.4792 21.5 16.7167 21.5 17C21.5 17.2833 21.4042 17.5208 21.2125 17.7125C21.0208 17.9042 20.7833 18 20.5 18H4.5ZM4.5 13C4.21667 13 3.97917 12.9042 3.7875 12.7125C3.59583 12.5208 3.5 12.2833 3.5 12C3.5 11.7167 3.59583 11.4792 3.7875 11.2875C3.97917 11.0958 4.21667 11 4.5 11H20.5C20.7833 11 21.0208 11.0958 21.2125 11.2875C21.4042 11.4792 21.5 11.7167 21.5 12C21.5 12.2833 21.4042 12.5208 21.2125 12.7125C21.0208 12.9042 20.7833 13 20.5 13H4.5ZM4.5 8C4.21667 8 3.97917 7.90417 3.7875 7.7125C3.59583 7.52083 3.5 7.28333 3.5 7C3.5 6.71667 3.59583 6.47917 3.7875 6.2875C3.97917 6.09583 4.21667 6 4.5 6H20.5C20.7833 6 21.0208 6.09583 21.2125 6.2875C21.4042 6.47917 21.5 6.71667 21.5 7C21.5 7.28333 21.4042 7.52083 21.2125 7.7125C21.0208 7.90417 20.7833 8 20.5 8H4.5Z" fill="#1D251D"/>
</g>
</svg>
