<svg width="32" height="32" viewBox="0 0 32 32" fill="none" xmlns="http://www.w3.org/2000/svg">
<mask id="mask0_1185_18066" style="mask-type:alpha" maskUnits="userSpaceOnUse" x="0" y="0" width="32" height="32">
<rect width="32" height="32" fill="#D9D9D9"/>
</mask>
<g mask="url(#mask0_1185_18066)">
<path d="M12.0001 21.3334L10.9001 25.7C10.8334 25.9889 10.689 26.2223 10.4668 26.4C10.2445 26.5778 9.97787 26.6667 9.66676 26.6667C9.24454 26.6667 8.90009 26.5 8.63343 26.1667C8.36676 25.8334 8.28898 25.4667 8.40009 25.0667L9.33343 21.3334H5.70009C5.25565 21.3334 4.90009 21.1612 4.63343 20.8167C4.36676 20.4723 4.28898 20.0889 4.40009 19.6667C4.46676 19.3556 4.62232 19.1112 4.86676 18.9334C5.1112 18.7556 5.38898 18.6667 5.70009 18.6667H10.0001L11.3334 13.3334H7.70009C7.25565 13.3334 6.90009 13.1612 6.63343 12.8167C6.36676 12.4723 6.28898 12.0889 6.40009 11.6667C6.46676 11.3556 6.62232 11.1112 6.86676 10.9334C7.11121 10.7556 7.38898 10.6667 7.70009 10.6667H12.0001L13.1001 6.30004C13.1668 6.01115 13.3112 5.77782 13.5334 5.60004C13.7556 5.42226 14.0223 5.33337 14.3334 5.33337C14.7556 5.33337 15.1001 5.50004 15.3668 5.83337C15.6334 6.16671 15.7112 6.53337 15.6001 6.93337L14.6668 10.6667H20.0001L21.1001 6.30004C21.1668 6.01115 21.3112 5.77782 21.5334 5.60004C21.7556 5.42226 22.0223 5.33337 22.3334 5.33337C22.7557 5.33337 23.1001 5.50004 23.3668 5.83337C23.6334 6.16671 23.7112 6.53337 23.6001 6.93337L22.6668 10.6667H26.3001C26.7445 10.6667 27.1001 10.8389 27.3668 11.1834C27.6334 11.5278 27.7112 11.9112 27.6001 12.3334C27.5334 12.6445 27.3779 12.8889 27.1334 13.0667C26.889 13.2445 26.6112 13.3334 26.3001 13.3334H22.0001L20.6668 18.6667H24.3001C24.7445 18.6667 25.1001 18.8389 25.3668 19.1834C25.6334 19.5278 25.7112 19.9112 25.6001 20.3334C25.5334 20.6445 25.3779 20.8889 25.1334 21.0667C24.889 21.2445 24.6112 21.3334 24.3001 21.3334H20.0001L18.9001 25.7C18.8334 25.9889 18.689 26.2223 18.4668 26.4C18.2445 26.5778 17.9779 26.6667 17.6668 26.6667C17.2445 26.6667 16.9001 26.5 16.6334 26.1667C16.3668 25.8334 16.289 25.4667 16.4001 25.0667L17.3334 21.3334H12.0001ZM12.6668 18.6667H18.0001L19.3334 13.3334H14.0001L12.6668 18.6667Z" fill="#1D251D"/>
</g>
</svg>
