<svg width="33" height="32" viewBox="0 0 33 32" fill="none" xmlns="http://www.w3.org/2000/svg">
<mask id="mask0_1185_18064" style="mask-type:alpha" maskUnits="userSpaceOnUse" x="0" y="0" width="33" height="32">
<rect x="0.666504" width="32" height="32" fill="#D9D9D9"/>
</mask>
<g mask="url(#mask0_1185_18064)">
<path d="M8.66668 28.6666C7.37779 28.6666 6.27779 28.2111 5.36668 27.3C4.45557 26.3889 4.00001 25.2889 4.00001 24C4.00001 22.7111 4.45557 21.6111 5.36668 20.7C6.27779 19.7889 7.37779 19.3333 8.66668 19.3333C9.95557 19.3333 11.0556 19.7889 11.9667 20.7C12.8778 21.6111 13.3333 22.7111 13.3333 24C13.3333 24.4889 13.2611 24.9611 13.1167 25.4166C12.9722 25.8722 12.7556 26.3 12.4667 26.7V25.8C13.1333 26.0889 13.8222 26.3055 14.5333 26.45C15.2445 26.5944 15.9556 26.6666 16.6667 26.6666C19.4 26.6666 21.7611 25.7777 23.75 24C25.7389 22.2222 26.9 20.0111 27.2334 17.3666C27.2778 16.9889 27.4334 16.6666 27.7 16.4C27.9667 16.1333 28.2889 16 28.6667 16C29.0445 16 29.3611 16.1333 29.6167 16.4C29.8722 16.6666 29.9778 16.9889 29.9334 17.3666C29.5778 20.7444 28.1445 23.5833 25.6333 25.8833C23.1222 28.1833 20.1333 29.3333 16.6667 29.3333C15.6667 29.3333 14.6889 29.2277 13.7333 29.0166C12.7778 28.8055 11.8556 28.4889 10.9667 28.0666C10.6111 28.2666 10.2389 28.4166 9.85001 28.5166C9.46112 28.6166 9.06668 28.6666 8.66668 28.6666ZM16.6667 20.6666C15.3778 20.6666 14.2778 20.2111 13.3667 19.3C12.4556 18.3889 12 17.2888 12 16C12 14.7111 12.4556 13.6111 13.3667 12.7C14.2778 11.7888 15.3778 11.3333 16.6667 11.3333C17.9556 11.3333 19.0556 11.7888 19.9667 12.7C20.8778 13.6111 21.3333 14.7111 21.3333 16C21.3333 17.2888 20.8778 18.3889 19.9667 19.3C19.0556 20.2111 17.9556 20.6666 16.6667 20.6666ZM16.6667 5.33329C13.9333 5.33329 11.5722 6.22218 9.58335 7.99996C7.59446 9.77774 6.43335 11.9888 6.10001 14.6333C6.05557 15.0111 5.90001 15.3333 5.63335 15.6C5.36668 15.8666 5.04446 16 4.66668 16C4.2889 16 3.97224 15.8666 3.71668 15.6C3.46112 15.3333 3.35557 15.0111 3.40001 14.6333C3.75557 11.2555 5.1889 8.41663 7.70001 6.11663C10.2111 3.81663 13.2 2.66663 16.6667 2.66663C17.6667 2.66663 18.6445 2.77218 19.6 2.98329C20.5556 3.1944 21.4778 3.51107 22.3667 3.93329C22.7222 3.73329 23.0945 3.58329 23.4833 3.48329C23.8722 3.38329 24.2667 3.33329 24.6667 3.33329C25.9556 3.33329 27.0556 3.78885 27.9667 4.69996C28.8778 5.61107 29.3334 6.71107 29.3334 7.99996C29.3334 9.28885 28.8778 10.3888 27.9667 11.3C27.0556 12.2111 25.9556 12.6666 24.6667 12.6666C23.3778 12.6666 22.2778 12.2111 21.3667 11.3C20.4556 10.3888 20 9.28885 20 7.99996C20 7.51107 20.0722 7.03885 20.2167 6.58329C20.3611 6.12774 20.5778 5.69996 20.8667 5.29996V6.19996C20.2 5.91107 19.5111 5.6944 18.8 5.54996C18.0889 5.40552 17.3778 5.33329 16.6667 5.33329Z" fill="#1D251D"/>
</g>
</svg>
