<svg width="32" height="32" viewBox="0 0 32 32" fill="none" xmlns="http://www.w3.org/2000/svg">
<mask id="mask0_1185_18018" style="mask-type:alpha" maskUnits="userSpaceOnUse" x="0" y="0" width="32" height="32">
<rect width="32" height="32" fill="#D9D9D9"/>
</mask>
<g mask="url(#mask0_1185_18018)">
<path d="M7.76667 22.6667L10.3 25.2C10.5667 25.4667 10.6944 25.7778 10.6833 26.1333C10.6722 26.4889 10.5333 26.8 10.2667 27.0667C10 27.3111 9.68889 27.4389 9.33334 27.45C8.97778 27.4611 8.66667 27.3333 8.4 27.0667L3.6 22.2667C3.46667 22.1333 3.37223 21.9889 3.31667 21.8333C3.26112 21.6778 3.23334 21.5111 3.23334 21.3333C3.23334 21.1555 3.26112 20.9889 3.31667 20.8333C3.37223 20.6778 3.46667 20.5333 3.6 20.4L8.4 15.6C8.64445 15.3555 8.95 15.2333 9.31667 15.2333C9.68334 15.2333 10 15.3555 10.2667 15.6C10.5333 15.8667 10.6667 16.1833 10.6667 16.55C10.6667 16.9167 10.5333 17.2333 10.2667 17.5L7.76667 20H26.6667C27.0445 20 27.3611 20.1278 27.6167 20.3833C27.8722 20.6389 28 20.9555 28 21.3333C28 21.7111 27.8722 22.0278 27.6167 22.2833C27.3611 22.5389 27.0445 22.6667 26.6667 22.6667H7.76667ZM24.2333 12H5.33334C4.95556 12 4.63889 11.8722 4.38334 11.6167C4.12778 11.3611 4 11.0444 4 10.6667C4 10.2889 4.12778 9.97221 4.38334 9.71665C4.63889 9.46109 4.95556 9.33332 5.33334 9.33332H24.2333L21.7 6.79998C21.4333 6.53332 21.3056 6.22221 21.3167 5.86665C21.3278 5.51109 21.4667 5.19998 21.7333 4.93332C22 4.68887 22.3111 4.56109 22.6667 4.54998C23.0222 4.53887 23.3333 4.66665 23.6 4.93332L28.4 9.73332C28.5333 9.86665 28.6278 10.0111 28.6833 10.1667C28.7389 10.3222 28.7667 10.4889 28.7667 10.6667C28.7667 10.8444 28.7389 11.0111 28.6833 11.1667C28.6278 11.3222 28.5333 11.4667 28.4 11.6L23.6 16.4C23.3556 16.6444 23.05 16.7667 22.6833 16.7667C22.3167 16.7667 22 16.6444 21.7333 16.4C21.4667 16.1333 21.3333 15.8167 21.3333 15.45C21.3333 15.0833 21.4667 14.7667 21.7333 14.5L24.2333 12Z" fill="#1D251D"/>
</g>
</svg>
