<svg width="32" height="32" viewBox="0 0 32 32" fill="none" xmlns="http://www.w3.org/2000/svg">
<mask id="mask0_1185_18078" style="mask-type:alpha" maskUnits="userSpaceOnUse" x="0" y="0" width="32" height="32">
<rect width="32" height="32" fill="#D9D9D9"/>
</mask>
<g mask="url(#mask0_1185_18078)">
<path d="M8.00033 26.6667C6.53366 26.6667 5.2781 26.1445 4.23366 25.1C3.18921 24.0556 2.66699 22.8 2.66699 21.3334V10.6667C2.66699 9.20004 3.18921 7.94449 4.23366 6.90004C5.2781 5.8556 6.53366 5.33337 8.00033 5.33337H24.0003C25.467 5.33337 26.7226 5.8556 27.767 6.90004C28.8114 7.94449 29.3337 9.20004 29.3337 10.6667V21.3334C29.3337 22.8 28.8114 24.0556 27.767 25.1C26.7226 26.1445 25.467 26.6667 24.0003 26.6667H8.00033ZM8.00033 10.6667H24.0003C24.4892 10.6667 24.9559 10.7223 25.4003 10.8334C25.8448 10.9445 26.267 11.1223 26.667 11.3667V10.6667C26.667 9.93337 26.4059 9.3056 25.8837 8.78337C25.3614 8.26115 24.7337 8.00004 24.0003 8.00004H8.00033C7.26699 8.00004 6.63922 8.26115 6.11699 8.78337C5.59477 9.3056 5.33366 9.93337 5.33366 10.6667V11.3667C5.73366 11.1223 6.15588 10.9445 6.60033 10.8334C7.04477 10.7223 7.51144 10.6667 8.00033 10.6667ZM5.53366 15L20.367 18.6C20.567 18.6445 20.767 18.6445 20.967 18.6C21.167 18.5556 21.3559 18.4667 21.5337 18.3334L26.167 14.4667C25.9226 14.1334 25.6114 13.8612 25.2337 13.65C24.8559 13.4389 24.4448 13.3334 24.0003 13.3334H8.00033C7.42255 13.3334 6.91699 13.4834 6.48366 13.7834C6.05033 14.0834 5.73366 14.4889 5.53366 15Z" fill="#1D251D"/>
</g>
</svg>
