<svg width="33" height="32" viewBox="0 0 33 32" fill="none" xmlns="http://www.w3.org/2000/svg">
<mask id="mask0_1185_18065" style="mask-type:alpha" maskUnits="userSpaceOnUse" x="0" y="0" width="33" height="32">
<rect x="0.333496" width="32" height="32" fill="#D9D9D9"/>
</mask>
<g mask="url(#mask0_1185_18065)">
<path d="M5.66665 26.6667C5.1111 26.6667 4.7111 26.4223 4.46665 25.9334C4.22221 25.4445 4.26665 24.9778 4.59999 24.5334L11 16L4.59999 7.46671C4.26665 7.02226 4.22221 6.5556 4.46665 6.06671C4.7111 5.57782 5.1111 5.33337 5.66665 5.33337H20.3333C20.7555 5.33337 21.1555 5.42782 21.5333 5.61671C21.9111 5.8056 22.2222 6.06671 22.4667 6.40004L28.0667 13.8334C28.3111 14.1445 28.3 14.4723 28.0333 14.8167C27.7667 15.1612 27.4222 15.2445 27 15.0667C26.6222 14.9334 26.1833 14.8334 25.6833 14.7667C25.1833 14.7 24.7333 14.6667 24.3333 14.6667C21.7555 14.6667 19.5555 15.5778 17.7333 17.4C15.9111 19.2223 15 21.4223 15 24C15 24.2 15.0055 24.4 15.0167 24.6C15.0278 24.8 15.0444 24.9889 15.0667 25.1667C15.1111 25.5667 15.0111 25.9167 14.7667 26.2167C14.5222 26.5167 14.2111 26.6667 13.8333 26.6667H5.66665ZM24.3333 30.6667C22.4889 30.6667 20.9167 30.0167 19.6167 28.7167C18.3167 27.4167 17.6667 25.8445 17.6667 24C17.6667 22.1556 18.3167 20.5834 19.6167 19.2834C20.9167 17.9834 22.4889 17.3334 24.3333 17.3334C26.1778 17.3334 27.75 17.9834 29.05 19.2834C30.35 20.5834 31 22.1556 31 24C31 25.8445 30.35 27.4167 29.05 28.7167C27.75 30.0167 26.1778 30.6667 24.3333 30.6667ZM24.3 26.0667L27.3 23.1C27.5 22.9 27.6 22.6667 27.6 22.4C27.6 22.1334 27.5 21.9 27.3 21.7C27.1 21.5 26.8667 21.4056 26.6 21.4167C26.3333 21.4278 26.1 21.5223 25.9 21.7L23.3667 24.1667L22.7667 23.5667C22.5667 23.3667 22.3333 23.2723 22.0667 23.2834C21.8 23.2945 21.5667 23.4 21.3667 23.6C21.1889 23.8 21.0944 24.0334 21.0833 24.3C21.0722 24.5667 21.1667 24.8 21.3667 25L22.4333 26.0667C22.7 26.3334 23.0111 26.4667 23.3667 26.4667C23.7222 26.4667 24.0333 26.3334 24.3 26.0667Z" fill="#C0C8C4"/>
</g>
</svg>
