<svg width="33" height="32" viewBox="0 0 33 32" fill="none" xmlns="http://www.w3.org/2000/svg">
<mask id="mask0_1185_18017" style="mask-type:alpha" maskUnits="userSpaceOnUse" x="0" y="0" width="33" height="32">
<rect x="0.666748" width="32" height="32" fill="#D9D9D9"/>
</mask>
<g mask="url(#mask0_1185_18017)">
<path d="M21.0001 6.6666C20.5334 6.6666 20.139 6.50549 19.8168 6.18327C19.4945 5.86104 19.3334 5.4666 19.3334 4.99993C19.3334 4.53327 19.4945 4.13882 19.8168 3.8166C20.139 3.49438 20.5334 3.33327 21.0001 3.33327C21.4668 3.33327 21.8612 3.49438 22.1834 3.8166C22.5057 4.13882 22.6668 4.53327 22.6668 4.99993C22.6668 5.4666 22.5057 5.86104 22.1834 6.18327C21.8612 6.50549 21.4668 6.6666 21.0001 6.6666ZM21.0001 28.6666C20.5334 28.6666 20.139 28.5055 19.8168 28.1833C19.4945 27.861 19.3334 27.4666 19.3334 26.9999C19.3334 26.5333 19.4945 26.1388 19.8168 25.8166C20.139 25.4944 20.5334 25.3333 21.0001 25.3333C21.4668 25.3333 21.8612 25.4944 22.1834 25.8166C22.5057 26.1388 22.6668 26.5333 22.6668 26.9999C22.6668 27.4666 22.5057 27.861 22.1834 28.1833C21.8612 28.5055 21.4668 28.6666 21.0001 28.6666ZM26.3334 11.3333C25.8668 11.3333 25.4723 11.1722 25.1501 10.8499C24.8279 10.5277 24.6668 10.1333 24.6668 9.6666C24.6668 9.19993 24.8279 8.80549 25.1501 8.48327C25.4723 8.16104 25.8668 7.99993 26.3334 7.99993C26.8001 7.99993 27.1946 8.16104 27.5168 8.48327C27.839 8.80549 28.0001 9.19993 28.0001 9.6666C28.0001 10.1333 27.839 10.5277 27.5168 10.8499C27.1946 11.1722 26.8001 11.3333 26.3334 11.3333ZM26.3334 23.9999C25.8668 23.9999 25.4723 23.8388 25.1501 23.5166C24.8279 23.1944 24.6668 22.7999 24.6668 22.3333C24.6668 21.8666 24.8279 21.4722 25.1501 21.1499C25.4723 20.8277 25.8668 20.6666 26.3334 20.6666C26.8001 20.6666 27.1946 20.8277 27.5168 21.1499C27.839 21.4722 28.0001 21.8666 28.0001 22.3333C28.0001 22.7999 27.839 23.1944 27.5168 23.5166C27.1946 23.8388 26.8001 23.9999 26.3334 23.9999ZM28.3334 17.6666C27.8668 17.6666 27.4723 17.5055 27.1501 17.1833C26.8279 16.861 26.6668 16.4666 26.6668 15.9999C26.6668 15.5333 26.8279 15.1388 27.1501 14.8166C27.4723 14.4944 27.8668 14.3333 28.3334 14.3333C28.8001 14.3333 29.1946 14.4944 29.5168 14.8166C29.839 15.1388 30.0001 15.5333 30.0001 15.9999C30.0001 16.4666 29.839 16.861 29.5168 17.1833C29.1946 17.5055 28.8001 17.6666 28.3334 17.6666ZM3.33344 15.9999C3.33344 12.511 4.49455 9.51104 6.81677 6.99993C9.13899 4.48882 11.989 3.0666 15.3668 2.73327C15.7223 2.68882 16.0279 2.79438 16.2834 3.04993C16.539 3.30549 16.6668 3.62215 16.6668 3.99993C16.6668 4.35549 16.5501 4.6666 16.3168 4.93327C16.0834 5.19993 15.789 5.35549 15.4334 5.39993C12.7445 5.71104 10.5001 6.8666 8.7001 8.8666C6.9001 10.8666 6.0001 13.2444 6.0001 15.9999C6.0001 18.7777 6.9001 21.161 8.7001 23.1499C10.5001 25.1388 12.7445 26.2888 15.4334 26.5999C15.789 26.6444 16.0834 26.7999 16.3168 27.0666C16.5501 27.3333 16.6668 27.6444 16.6668 27.9999C16.6668 28.3777 16.539 28.6944 16.2834 28.9499C16.0279 29.2055 15.7223 29.311 15.3668 29.2666C11.9668 28.9333 9.11121 27.511 6.8001 24.9999C4.48899 22.4888 3.33344 19.4888 3.33344 15.9999ZM16.6668 18.6666C15.9334 18.6666 15.3057 18.4055 14.7834 17.8833C14.2612 17.361 14.0001 16.7333 14.0001 15.9999C14.0001 15.8888 14.0057 15.7722 14.0168 15.6499C14.0279 15.5277 14.0557 15.411 14.1001 15.2999L12.2668 13.4666C12.0223 13.2222 11.9001 12.911 11.9001 12.5333C11.9001 12.1555 12.0223 11.8444 12.2668 11.5999C12.5112 11.3555 12.8223 11.2333 13.2001 11.2333C13.5779 11.2333 13.889 11.3555 14.1334 11.5999L15.9668 13.4333C16.0557 13.411 16.289 13.3777 16.6668 13.3333C17.4001 13.3333 18.0279 13.5944 18.5501 14.1166C19.0723 14.6388 19.3334 15.2666 19.3334 15.9999C19.3334 16.7333 19.0723 17.361 18.5501 17.8833C18.0279 18.4055 17.4001 18.6666 16.6668 18.6666Z" fill="#C0C8C4"/>
</g>
</svg>
