<svg width="33" height="32" viewBox="0 0 33 32" fill="none" xmlns="http://www.w3.org/2000/svg">
<mask id="mask0_1185_18061" style="mask-type:alpha" maskUnits="userSpaceOnUse" x="0" y="0" width="33" height="32">
<rect x="0.666992" width="32" height="32" fill="#D9D9D9"/>
</mask>
<g mask="url(#mask0_1185_18061)">
<path d="M16.3668 25.4333L21.9002 14.6333C22.0113 14.4111 22.0002 14.1944 21.8668 13.9833C21.7335 13.7722 21.5446 13.6666 21.3002 13.6666H17.7335V6.69996C17.7335 6.52218 17.6502 6.41663 17.4835 6.38329C17.3168 6.34996 17.1891 6.41107 17.1002 6.56663L11.5668 17.3666C11.4557 17.5889 11.4668 17.8055 11.6002 18.0166C11.7335 18.2277 11.9224 18.3333 12.1668 18.3333H15.7335V25.3C15.7335 25.4777 15.8168 25.5833 15.9835 25.6166C16.1502 25.65 16.2779 25.5889 16.3668 25.4333ZM16.6668 29.3333C14.8224 29.3333 13.0891 28.9833 11.4668 28.2833C9.84461 27.5833 8.4335 26.6333 7.2335 25.4333C6.0335 24.2333 5.0835 22.8222 4.3835 21.2C3.6835 19.5777 3.3335 17.8444 3.3335 16C3.3335 14.1555 3.6835 12.4222 4.3835 10.8C5.0835 9.17774 6.0335 7.76663 7.2335 6.56663C8.4335 5.36663 9.84461 4.41663 11.4668 3.71663C13.0891 3.01663 14.8224 2.66663 16.6668 2.66663C18.5113 2.66663 20.2446 3.01663 21.8668 3.71663C23.4891 4.41663 24.9002 5.36663 26.1002 6.56663C27.3002 7.76663 28.2502 9.17774 28.9502 10.8C29.6502 12.4222 30.0002 14.1555 30.0002 16C30.0002 17.8444 29.6502 19.5777 28.9502 21.2C28.2502 22.8222 27.3002 24.2333 26.1002 25.4333C24.9002 26.6333 23.4891 27.5833 21.8668 28.2833C20.2446 28.9833 18.5113 29.3333 16.6668 29.3333Z" fill="#C0C8C4"/>
</g>
</svg>
