<svg width="33" height="32" viewBox="0 0 33 32" fill="none" xmlns="http://www.w3.org/2000/svg">
<mask id="mask0_1185_18031" style="mask-type:alpha" maskUnits="userSpaceOnUse" x="0" y="0" width="33" height="32">
<rect x="0.333374" width="32" height="32" fill="#D9D9D9"/>
</mask>
<g mask="url(#mask0_1185_18031)">
<path d="M25.6666 11.9999C24.4 11.9999 23.3 11.6221 22.3666 10.8666C21.4333 10.111 20.8111 9.15547 20.5 7.99992H12.1333C11.8888 8.93325 11.4277 9.73881 10.75 10.4166C10.0722 11.0944 9.26663 11.5555 8.33329 11.7999V20.1666C9.48885 20.4777 10.4444 21.0999 11.2 22.0333C11.9555 22.9666 12.3333 24.0666 12.3333 25.3333C12.3333 26.7999 11.8111 28.0555 10.7666 29.0999C9.72218 30.1444 8.46663 30.6666 6.99996 30.6666C5.53329 30.6666 4.27774 30.1444 3.23329 29.0999C2.18885 28.0555 1.66663 26.7999 1.66663 25.3333C1.66663 24.0666 2.0444 22.9666 2.79996 22.0333C3.55551 21.0999 4.51107 20.4777 5.66663 20.1666V11.7999C4.51107 11.4888 3.55551 10.8666 2.79996 9.93325C2.0444 8.99992 1.66663 7.91103 1.66663 6.66659C1.66663 5.19992 2.18885 3.94436 3.23329 2.89992C4.27774 1.85547 5.53329 1.33325 6.99996 1.33325C8.2444 1.33325 9.33329 1.71103 10.2666 2.46659C11.2 3.22214 11.8222 4.1777 12.1333 5.33325H20.5C20.8111 4.1777 21.4333 3.22214 22.3666 2.46659C23.3 1.71103 24.4 1.33325 25.6666 1.33325C27.1333 1.33325 28.3888 1.85547 29.4333 2.89992C30.4777 3.94436 31 5.19992 31 6.66659C31 8.13325 30.4777 9.38881 29.4333 10.4333C28.3888 11.4777 27.1333 11.9999 25.6666 11.9999ZM25.6666 30.6666C24.2 30.6666 22.9444 30.1444 21.9 29.0999C20.8555 28.0555 20.3333 26.7999 20.3333 25.3333C20.3333 23.8666 20.8555 22.611 21.9 21.5666C22.9444 20.5221 24.2 19.9999 25.6666 19.9999C27.1333 19.9999 28.3888 20.5221 29.4333 21.5666C30.4777 22.611 31 23.8666 31 25.3333C31 26.7999 30.4777 28.0555 29.4333 29.0999C28.3888 30.1444 27.1333 30.6666 25.6666 30.6666Z" fill="#C0C8C4"/>
</g>
</svg>
