<svg width="33" height="32" viewBox="0 0 33 32" fill="none" xmlns="http://www.w3.org/2000/svg">
<path fill-rule="evenodd" clip-rule="evenodd" d="M16.583 29.9999C24.315 29.9999 30.583 23.7319 30.583 15.9999C30.583 8.26789 24.315 1.99988 16.583 1.99988C8.85102 1.99988 2.58301 8.26789 2.58301 15.9999C2.58301 23.7319 8.85102 29.9999 16.583 29.9999ZM12.5442 20.5283L11.9744 21.4725H13.3079C15.0404 21.4725 16.4499 20.0541 16.4499 18.3106V18.0327C16.4499 16.2892 15.0404 14.8708 13.3079 14.8708H11.5583C11.0935 14.8708 10.3137 14.6704 10.3137 13.3284C10.3137 12.6311 10.872 12.0638 11.5583 12.0638H17.5332L18.0788 11.124L17.5307 10.1665H11.5583C10.7275 10.1665 9.94121 10.4964 9.34435 11.0954C8.74591 11.696 8.41631 12.4891 8.41631 13.3284V13.6063C8.41631 14.4456 8.74591 15.2386 9.34435 15.8392C9.94117 16.4383 10.7275 16.7681 11.5583 16.7681H13.3079C13.8088 16.7681 14.1988 16.9995 14.4058 17.4195C14.5535 17.719 14.5724 18.053 14.5724 18.3106C14.5724 19.0078 14.0051 19.5751 13.3079 19.5751H11.9717L12.5442 20.5283ZM20.3196 21.4724C18.587 21.4724 17.1775 20.054 17.1775 18.3106V18.0326C17.1775 16.2891 18.587 14.8707 20.3196 14.8707H22.0744C22.5392 14.8707 23.319 14.6703 23.319 13.3283C23.319 12.6311 22.7607 12.0638 22.0744 12.0638H20.6474L21.1702 11.1282L20.6402 10.1664H22.0744C22.9052 10.1664 23.6915 10.4963 24.2884 11.0953C24.8868 11.696 25.2164 12.489 25.2164 13.3283V13.6061C25.2164 14.4455 24.8868 15.2385 24.2884 15.8392C23.6915 16.4382 22.9053 16.7681 22.0744 16.7681H20.3196C19.8186 16.7681 19.4287 16.9994 19.2217 17.4194C19.074 17.719 19.0551 18.053 19.0551 18.3105C19.0551 19.0078 19.6223 19.5751 20.3196 19.5751H21.4818L22.0744 20.5267L21.4827 21.4724H20.3196V21.4724ZM17.8937 10.1664L18.4516 11.1287L17.9122 12.0545H18.4305L18.9648 11.1292L18.412 10.1664H17.8937ZM9.82582 20.5319L9.26797 19.5696H9.78626L10.339 20.5324L9.80477 21.4577H9.28648L9.82582 20.5319ZM21.9291 19.5696L22.4869 20.5319L21.9476 21.4577H22.4659L23.0001 20.5324L22.4473 19.5696H21.9291ZM19.3772 11.1287L18.8193 10.1664H19.3376L19.8904 11.1292L19.3561 12.0545H18.8378L19.3772 11.1287ZM10.1935 19.5696L10.7513 20.5319L10.212 21.4577H10.7303L11.2645 20.5324L10.7118 19.5696H10.1935ZM23.4125 20.5319L22.8547 19.5696H23.373L23.9258 20.5324L23.3915 21.4577H22.8732L23.4125 20.5319ZM19.7448 10.1664L20.3027 11.1287L19.7633 12.0545H20.2816L20.8159 11.1292L20.2631 10.1664H19.7448ZM11.6767 20.5319L11.1188 19.5696H11.6371L12.1899 20.5324L11.6556 21.4577H11.1373L11.6767 20.5319ZM23.7802 19.5696L24.338 20.5319L23.7987 21.4577H24.317L24.8513 20.5324L24.2985 19.5696H23.7802Z" fill="#C0C8C4"/>
</svg>
