<svg width="32" height="32" viewBox="0 0 32 32" fill="none" xmlns="http://www.w3.org/2000/svg">
<path fill-rule="evenodd" clip-rule="evenodd" d="M14.1825 30.8526C12.7585 30.8526 11.3711 30.5577 10.0545 29.9749C7.50365 28.8457 5.53793 26.7703 4.51622 24.128C3.49451 21.488 3.54022 18.5989 4.64193 15.9954C5.26593 14.5189 6.22593 13.1886 7.41679 12.144C7.34593 10.5417 7.63851 8.91659 8.26251 7.44001C9.91051 3.54287 13.6888 1.02401 17.8854 1.02401H18.2282H20.9208C23.1425 1.02401 25.8214 1.02173 26.1414 1.02173C26.9162 1.02173 27.4899 1.51316 27.5951 1.61373C27.6979 1.70516 28.2237 2.22173 28.2237 3.16116C28.2237 3.61373 28.2214 7.2343 28.2191 9.63201L28.2168 11.6983C28.2122 13.1406 27.9242 14.5486 27.3597 15.8834C26.7357 17.36 25.7756 18.6903 24.5848 19.7349C24.6556 21.3372 24.3631 22.9623 23.7391 24.4389C22.0865 28.3337 18.3379 30.8526 14.1825 30.8526ZM8.02708 15.2732C7.62022 15.808 7.27736 16.3977 7.00993 17.0286C6.17793 18.9943 6.14593 21.1749 6.91622 23.1657C7.68651 25.1566 9.16765 26.72 11.0854 27.568C12.0751 28.0069 13.1174 28.2286 14.1848 28.2286C17.3071 28.2286 20.1276 26.3337 21.3665 23.3989C21.6362 22.7634 21.8236 22.0983 21.9242 21.424C20.6259 21.9954 19.2042 22.2949 17.8008 22.2949C16.3791 22.2949 14.9894 22 13.6728 21.4172C12.1459 20.7406 10.7882 19.6914 9.74365 18.3794C9.01908 17.4674 8.42708 16.3954 8.02708 15.2732ZM10.1596 13.3463C10.6922 15.872 12.3859 17.9863 14.7036 19.0126C15.6934 19.4514 16.7356 19.6732 17.8031 19.6732C19.2248 19.6732 20.6168 19.2777 21.8374 18.528C21.3048 16.0023 19.6111 13.888 17.2934 12.8617C16.3036 12.4229 15.2614 12.2012 14.1939 12.2012C12.7722 12.1989 11.3779 12.5966 10.1596 13.3463ZM14.2854 9.57716C15.6774 9.58859 17.0351 9.88573 18.3219 10.4549C19.8488 11.1314 21.2065 12.1806 22.2511 13.4903C22.9779 14.4023 23.5699 15.4743 23.9699 16.5966C24.3791 16.0617 24.7196 15.472 24.9871 14.8412C25.4648 13.7097 25.4648 12.4092 25.4648 11.2594C25.4648 11.0217 25.4648 10.7703 25.4648 10.5097V10.2103C25.4648 9.60687 25.4648 8.92344 25.4648 8.29259C25.4625 7.45601 25.4625 6.61487 25.4648 5.8903V5.70059C25.4648 5.46287 25.4648 5.24344 25.4648 5.04687V3.78516C25.4648 3.78516 17.9768 3.78516 17.9745 3.78516C17.9059 3.78516 17.8648 3.78516 17.8419 3.78516C17.8328 3.78516 17.8236 3.78516 17.8145 3.78516H17.8054C14.6968 3.78516 11.8122 5.66859 10.6282 8.47087C10.3585 9.1063 10.1711 9.77144 10.0705 10.4457C11.3414 9.88801 12.7288 9.5863 14.1002 9.57487L14.2854 9.57716Z" fill="#C0C8C4"/>
<path fill-rule="evenodd" clip-rule="evenodd" d="M14.1825 30.7611C12.7722 30.7611 11.3962 30.4686 10.0911 29.8903C7.56307 28.7703 5.61335 26.7131 4.60078 24.0937C3.58821 21.4766 3.63164 18.6126 4.72421 16.0297C5.35049 14.5508 6.31049 13.2228 7.50821 12.1828C7.43049 10.5783 7.71849 8.95313 8.34478 7.47427C9.97907 3.61141 13.7231 1.11313 17.8831 1.11313H18.2259C19.7254 1.11313 25.6545 1.11084 26.1368 1.11084C26.8774 1.11084 27.4214 1.57713 27.5288 1.6777C27.6339 1.77141 28.1276 2.26055 28.1276 3.15884C28.1276 3.73027 28.1231 9.39884 28.1208 11.1223V11.696C28.1162 13.1268 27.8305 14.5234 27.2705 15.8468C26.6442 17.3257 25.6842 18.6537 24.4865 19.6937C24.5642 21.2983 24.2762 22.9234 23.6499 24.4023C22.0179 28.2628 18.3014 30.7611 14.1825 30.7611ZM8.05907 15.0857C7.59964 15.6617 7.22021 16.3017 6.92535 16.9943C6.08421 18.9828 6.04992 21.1863 6.82935 23.2C7.60878 25.2114 9.10592 26.7931 11.0465 27.6526C12.0476 28.096 13.1036 28.32 14.1825 28.32C17.3414 28.32 20.1939 26.4023 21.4488 23.4331C21.7436 22.736 21.9402 22.0114 22.0339 21.2708C20.7059 21.8811 19.2499 22.2034 17.7985 22.2034C16.3882 22.2034 15.0122 21.9108 13.7071 21.3326C12.1939 20.6628 10.8476 19.6206 9.81221 18.3223C9.05792 17.3691 8.45449 16.2583 8.05907 15.0857ZM10.0568 13.3006C10.5802 15.8857 12.2922 18.0434 14.6648 19.0948C15.6659 19.5383 16.7196 19.7623 17.8008 19.7623C19.2636 19.7623 20.6899 19.3508 21.9379 18.5691C21.4145 15.984 19.7025 13.8263 17.3299 12.7748C16.3288 12.3314 15.2751 12.1074 14.1939 12.1074C12.7311 12.1074 11.3048 12.5211 10.0568 13.3006ZM14.1939 9.66855C15.6042 9.66855 16.9802 9.96113 18.2854 10.5394C19.7985 11.2091 21.1448 12.2491 22.1802 13.5497C22.9391 14.5028 23.5425 15.6137 23.9379 16.7886C24.3974 16.2126 24.7768 15.5726 25.0716 14.88C25.5562 13.7326 25.5562 12.4206 25.5562 11.264C25.5562 10.9897 25.5562 10.6948 25.5562 10.3908V10.3543C25.5562 9.70741 25.5562 8.97598 25.5562 8.29484C25.5539 7.44684 25.5539 6.58513 25.5562 5.89255V5.83313C25.5562 5.54513 25.5562 5.28227 25.5562 5.04913V3.69598H17.9791C17.9014 3.69598 17.8579 3.69598 17.8328 3.69598C17.8259 3.69598 17.8168 3.69598 17.8099 3.69598H17.8054C14.6602 3.69598 11.7436 5.60227 10.5436 8.43655C10.2488 9.1337 10.0522 9.85827 9.9585 10.5988C11.2865 9.98855 12.7425 9.66855 14.1939 9.66855Z" fill="#C0C8C4"/>
<path fill-rule="evenodd" clip-rule="evenodd" d="M13.9883 16.7017C14.5506 16.7017 15.0055 16.2354 15.0055 15.6617C15.0055 15.088 14.5506 14.6217 13.9883 14.6217C13.426 14.6217 12.9712 15.088 12.9712 15.6617C12.9712 16.2354 13.426 16.7017 13.9883 16.7017Z" fill="#C0C8C4"/>
<path fill-rule="evenodd" clip-rule="evenodd" d="M18.9736 16.0458C18.9736 16.8115 18.3678 17.4332 17.6181 17.4332C16.8707 17.4332 16.2627 16.8115 16.2627 16.0458C16.2627 15.28 16.8684 14.6583 17.6181 14.6583C18.3656 14.6606 18.9736 15.28 18.9736 16.0458Z" fill="#C0C8C4"/>
</svg>
