<svg width="25" height="24" viewBox="0 0 25 24" fill="none" xmlns="http://www.w3.org/2000/svg">
<mask id="mask0_263_20302" style="mask-type:alpha" maskUnits="userSpaceOnUse" x="0" y="0" width="25" height="24">
<rect x="0.5" width="24" height="24" fill="#D9D9D9"/>
</mask>
<g mask="url(#mask0_263_20302)">
<path d="M4.49974 20C4.08308 20 3.78308 19.8167 3.59974 19.45C3.41641 19.0833 3.44974 18.7333 3.69974 18.4L8.49974 12L3.69974 5.6C3.44974 5.26667 3.41641 4.91667 3.59974 4.55C3.78308 4.18333 4.08308 4 4.49974 4H15.4997C15.8164 4 16.1164 4.07083 16.3997 4.2125C16.6831 4.35417 16.9164 4.55 17.0997 4.8L21.2997 10.375C21.4831 10.6083 21.4747 10.8542 21.2747 11.1125C21.0747 11.3708 20.8164 11.4333 20.4997 11.3C20.2164 11.2 19.8872 11.125 19.5122 11.075C19.1372 11.025 18.7997 11 18.4997 11C16.5664 11 14.9164 11.6833 13.5497 13.05C12.1831 14.4167 11.4997 16.0667 11.4997 18C11.4997 18.15 11.5039 18.3 11.5122 18.45C11.5206 18.6 11.5331 18.7417 11.5497 18.875C11.5831 19.175 11.5081 19.4375 11.3247 19.6625C11.1414 19.8875 10.9081 20 10.6247 20H4.49974ZM18.4997 23C17.1164 23 15.9372 22.5125 14.9622 21.5375C13.9872 20.5625 13.4997 19.3833 13.4997 18C13.4997 16.6167 13.9872 15.4375 14.9622 14.4625C15.9372 13.4875 17.1164 13 18.4997 13C19.8831 13 21.0622 13.4875 22.0372 14.4625C23.0122 15.4375 23.4997 16.6167 23.4997 18C23.4997 19.3833 23.0122 20.5625 22.0372 21.5375C21.0622 22.5125 19.8831 23 18.4997 23ZM18.4747 19.55L20.7247 17.325C20.8747 17.175 20.9497 17 20.9497 16.8C20.9497 16.6 20.8747 16.425 20.7247 16.275C20.5747 16.125 20.3997 16.0542 20.1997 16.0625C19.9997 16.0708 19.8247 16.1417 19.6747 16.275L17.7747 18.125L17.3247 17.675C17.1747 17.525 16.9997 17.4542 16.7997 17.4625C16.5997 17.4708 16.4247 17.55 16.2747 17.7C16.1414 17.85 16.0706 18.025 16.0622 18.225C16.0539 18.425 16.1247 18.6 16.2747 18.75L17.0747 19.55C17.2747 19.75 17.5081 19.85 17.7747 19.85C18.0414 19.85 18.2747 19.75 18.4747 19.55Z" fill="#1D251D"/>
</g>
</svg>
