<svg width="25" height="24" viewBox="0 0 25 24" fill="none" xmlns="http://www.w3.org/2000/svg">
<mask id="mask0_773_25231" style="mask-type:alpha" maskUnits="userSpaceOnUse" x="0" y="0" width="25" height="24">
<rect x="0.5" width="24" height="24" fill="#D9D9D9"/>
</mask>
<g mask="url(#mask0_773_25231)">
<path d="M12.5 23C10.0167 23 7.89583 22.6458 6.1375 21.9375C4.37917 21.2292 3.5 20.25 3.5 19C3.5 18.4667 3.66667 17.9875 4 17.5625C4.33333 17.1375 4.8 16.7583 5.4 16.425L7.025 17.875C6.625 18.0083 6.27083 18.1792 5.9625 18.3875C5.65417 18.5958 5.5 18.8 5.5 19C5.5 19.4333 6.175 19.875 7.525 20.325C8.875 20.775 10.5333 21 12.5 21C14.4667 21 16.125 20.775 17.475 20.325C18.825 19.875 19.5 19.4333 19.5 19C19.5 18.8 19.3458 18.5958 19.0375 18.3875C18.7292 18.1792 18.375 18.0083 17.975 17.875L19.6 16.425C20.2 16.7583 20.6667 17.1375 21 17.5625C21.3333 17.9875 21.5 18.4667 21.5 19C21.5 20.25 20.6208 21.2292 18.8625 21.9375C17.1042 22.6458 14.9833 23 12.5 23ZM12.5 19C12.1333 19 11.7792 18.9375 11.4375 18.8125C11.0958 18.6875 10.7833 18.5 10.5 18.25L4.2 12.675C3.98333 12.4917 3.8125 12.2667 3.6875 12C3.5625 11.7333 3.5 11.4583 3.5 11.175V9.175C3.5 8.89167 3.55417 8.61667 3.6625 8.35C3.77083 8.08333 3.93333 7.85833 4.15 7.675L10.45 1.8C10.7333 1.53333 11.05 1.33333 11.4 1.2C11.75 1.06667 12.1167 1 12.5 1C12.8833 1 13.25 1.06667 13.6 1.2C13.95 1.33333 14.2667 1.53333 14.55 1.8L20.85 7.675C21.0667 7.85833 21.2292 8.08333 21.3375 8.35C21.4458 8.61667 21.5 8.89167 21.5 9.175V11.175C21.5 11.4583 21.4375 11.7333 21.3125 12C21.1875 12.2667 21.0167 12.4917 20.8 12.675L14.5 18.25C14.2167 18.5 13.9042 18.6875 13.5625 18.8125C13.2208 18.9375 12.8667 19 12.5 19ZM9.5 10.25C9.85 10.25 10.1458 10.1292 10.3875 9.8875C10.6292 9.64583 10.75 9.35 10.75 9C10.75 8.65 10.6292 8.35417 10.3875 8.1125C10.1458 7.87083 9.85 7.75 9.5 7.75C9.15 7.75 8.85417 7.87083 8.6125 8.1125C8.37083 8.35417 8.25 8.65 8.25 9C8.25 9.35 8.37083 9.64583 8.6125 9.8875C8.85417 10.1292 9.15 10.25 9.5 10.25ZM10.75 11.6C11.4667 11.95 12.2208 12.0625 13.0125 11.9375C13.8042 11.8125 14.5 11.4833 15.1 10.95C15.6667 10.4667 16.0375 9.85833 16.2125 9.125C16.3875 8.39167 16.3 7.7 15.95 7.05L10.75 11.6ZM12.5 7.25C12.85 7.25 13.1458 7.12917 13.3875 6.8875C13.6292 6.64583 13.75 6.35 13.75 6C13.75 5.65 13.6292 5.35417 13.3875 5.1125C13.1458 4.87083 12.85 4.75 12.5 4.75C12.15 4.75 11.8542 4.87083 11.6125 5.1125C11.3708 5.35417 11.25 5.65 11.25 6C11.25 6.35 11.3708 6.64583 11.6125 6.8875C11.8542 7.12917 12.15 7.25 12.5 7.25Z" fill="#1D251D"/>
</g>
</svg>
