<svg width="25" height="24" viewBox="0 0 25 24" fill="none" xmlns="http://www.w3.org/2000/svg">
<mask id="mask0_141_9613" style="mask-type:alpha" maskUnits="userSpaceOnUse" x="0" y="0" width="25" height="24">
<rect x="0.5" width="24" height="24" fill="#D9D9D9"/>
</mask>
<g mask="url(#mask0_141_9613)">
<path d="M8.35039 13L11.2004 15.85C11.4004 16.05 11.4962 16.2833 11.4879 16.55C11.4796 16.8167 11.3837 17.05 11.2004 17.25C11.0004 17.45 10.7629 17.5542 10.4879 17.5625C10.2129 17.5708 9.97539 17.475 9.77539 17.275L5.20039 12.7C5.00039 12.5 4.90039 12.2667 4.90039 12C4.90039 11.7333 5.00039 11.5 5.20039 11.3L9.77539 6.72501C9.97539 6.52501 10.2129 6.42918 10.4879 6.43751C10.7629 6.44585 11.0004 6.55001 11.2004 6.75001C11.3837 6.95001 11.4796 7.18335 11.4879 7.45001C11.4962 7.71668 11.4004 7.95001 11.2004 8.15001L8.35039 11H19.5004C19.7837 11 20.0212 11.0958 20.2129 11.2875C20.4046 11.4792 20.5004 11.7167 20.5004 12C20.5004 12.2833 20.4046 12.5208 20.2129 12.7125C20.0212 12.9042 19.7837 13 19.5004 13H8.35039Z" fill="#1D251D"/>
</g>
</svg>
