<svg width="25" height="24" viewBox="0 0 25 24" fill="none" xmlns="http://www.w3.org/2000/svg">
<mask id="mask0_141_9606" style="mask-type:alpha" maskUnits="userSpaceOnUse" x="0" y="0" width="25" height="24">
<rect x="0.5" width="24" height="24" fill="#D9D9D9"/>
</mask>
<g mask="url(#mask0_141_9606)">
<path d="M16.65 13H5.5C5.21667 13 4.97917 12.9042 4.7875 12.7125C4.59583 12.5208 4.5 12.2833 4.5 12C4.5 11.7167 4.59583 11.4792 4.7875 11.2875C4.97917 11.0958 5.21667 11 5.5 11H16.65L13.8 8.15001C13.6 7.95001 13.5042 7.71668 13.5125 7.45001C13.5208 7.18335 13.6167 6.95001 13.8 6.75001C14 6.55001 14.2375 6.44585 14.5125 6.43751C14.7875 6.42918 15.025 6.52501 15.225 6.72501L19.8 11.3C19.9 11.4 19.9708 11.5083 20.0125 11.625C20.0542 11.7417 20.075 11.8667 20.075 12C20.075 12.1333 20.0542 12.2583 20.0125 12.375C19.9708 12.4917 19.9 12.6 19.8 12.7L15.225 17.275C15.025 17.475 14.7875 17.5708 14.5125 17.5625C14.2375 17.5542 14 17.45 13.8 17.25C13.6167 17.05 13.5208 16.8167 13.5125 16.55C13.5042 16.2833 13.6 16.05 13.8 15.85L16.65 13Z" fill="#1D251D"/>
</g>
</svg>
