<svg width="25" height="24" viewBox="0 0 25 24" fill="none" xmlns="http://www.w3.org/2000/svg">
<mask id="mask0_93_7689" style="mask-type:alpha" maskUnits="userSpaceOnUse" x="0" y="0" width="25" height="24">
<rect x="0.5" width="24" height="24" fill="#D9D9D9"/>
</mask>
<g mask="url(#mask0_93_7689)">
<path d="M10.0502 12L17.4002 19.35C17.6502 19.6 17.771 19.8917 17.7627 20.225C17.7544 20.5583 17.6252 20.85 17.3752 21.1C17.1252 21.35 16.8335 21.475 16.5002 21.475C16.1669 21.475 15.8752 21.35 15.6252 21.1L7.9252 13.425C7.7252 13.225 7.5752 13 7.4752 12.75C7.3752 12.5 7.3252 12.25 7.3252 12C7.3252 11.75 7.3752 11.5 7.4752 11.25C7.5752 11 7.7252 10.775 7.9252 10.575L15.6252 2.87499C15.8752 2.62499 16.171 2.50415 16.5127 2.51249C16.8544 2.52082 17.1502 2.64999 17.4002 2.89999C17.6502 3.14999 17.7752 3.44165 17.7752 3.77499C17.7752 4.10832 17.6502 4.39999 17.4002 4.64999L10.0502 12Z" fill="#1D251D"/>
</g>
</svg>
