<svg width="25" height="24" viewBox="0 0 25 24" fill="none" xmlns="http://www.w3.org/2000/svg">
<mask id="mask0_93_7688" style="mask-type:alpha" maskUnits="userSpaceOnUse" x="0" y="0" width="25" height="24">
<rect x="0.5" width="24" height="24" fill="#D9D9D9"/>
</mask>
<g mask="url(#mask0_93_7688)">
<path d="M14.9746 12L7.62462 4.65C7.37462 4.4 7.25379 4.10417 7.26212 3.7625C7.27046 3.42083 7.39962 3.125 7.64962 2.875C7.89962 2.625 8.19546 2.5 8.53712 2.5C8.87879 2.5 9.17462 2.625 9.42462 2.875L17.0996 10.575C17.2996 10.775 17.4496 11 17.5496 11.25C17.6496 11.5 17.6996 11.75 17.6996 12C17.6996 12.25 17.6496 12.5 17.5496 12.75C17.4496 13 17.2996 13.225 17.0996 13.425L9.39962 21.125C9.14962 21.375 8.85796 21.4958 8.52462 21.4875C8.19129 21.4792 7.89962 21.35 7.64962 21.1C7.39962 20.85 7.27462 20.5542 7.27462 20.2125C7.27462 19.8708 7.39962 19.575 7.64962 19.325L14.9746 12Z" fill="#1D251D"/>
</g>
</svg>
