<svg width="25" height="24" viewBox="0 0 25 24" fill="none" xmlns="http://www.w3.org/2000/svg">
<mask id="mask0_173_29581" style="mask-type:alpha" maskUnits="userSpaceOnUse" x="0" y="0" width="25" height="24">
<rect x="0.5" width="24" height="24" fill="#D9D9D9"/>
</mask>
<g mask="url(#mask0_173_29581)">
<path d="M15.75 5.00001C15.4 5.00001 15.1042 4.87918 14.8625 4.63751C14.6208 4.39584 14.5 4.10001 14.5 3.75001C14.5 3.40001 14.6208 3.10418 14.8625 2.86251C15.1042 2.62084 15.4 2.50001 15.75 2.50001C16.1 2.50001 16.3958 2.62084 16.6375 2.86251C16.8792 3.10418 17 3.40001 17 3.75001C17 4.10001 16.8792 4.39584 16.6375 4.63751C16.3958 4.87918 16.1 5.00001 15.75 5.00001ZM15.75 21.5C15.4 21.5 15.1042 21.3792 14.8625 21.1375C14.6208 20.8958 14.5 20.6 14.5 20.25C14.5 19.9 14.6208 19.6042 14.8625 19.3625C15.1042 19.1208 15.4 19 15.75 19C16.1 19 16.3958 19.1208 16.6375 19.3625C16.8792 19.6042 17 19.9 17 20.25C17 20.6 16.8792 20.8958 16.6375 21.1375C16.3958 21.3792 16.1 21.5 15.75 21.5ZM19.75 8.50001C19.4 8.50001 19.1042 8.37918 18.8625 8.13751C18.6208 7.89584 18.5 7.60001 18.5 7.25001C18.5 6.90001 18.6208 6.60418 18.8625 6.36251C19.1042 6.12084 19.4 6.00001 19.75 6.00001C20.1 6.00001 20.3958 6.12084 20.6375 6.36251C20.8792 6.60418 21 6.90001 21 7.25001C21 7.60001 20.8792 7.89584 20.6375 8.13751C20.3958 8.37918 20.1 8.50001 19.75 8.50001ZM19.75 18C19.4 18 19.1042 17.8792 18.8625 17.6375C18.6208 17.3958 18.5 17.1 18.5 16.75C18.5 16.4 18.6208 16.1042 18.8625 15.8625C19.1042 15.6208 19.4 15.5 19.75 15.5C20.1 15.5 20.3958 15.6208 20.6375 15.8625C20.8792 16.1042 21 16.4 21 16.75C21 17.1 20.8792 17.3958 20.6375 17.6375C20.3958 17.8792 20.1 18 19.75 18ZM21.25 13.25C20.9 13.25 20.6042 13.1292 20.3625 12.8875C20.1208 12.6458 20 12.35 20 12C20 11.65 20.1208 11.3542 20.3625 11.1125C20.6042 10.8708 20.9 10.75 21.25 10.75C21.6 10.75 21.8958 10.8708 22.1375 11.1125C22.3792 11.3542 22.5 11.65 22.5 12C22.5 12.35 22.3792 12.6458 22.1375 12.8875C21.8958 13.1292 21.6 13.25 21.25 13.25ZM2.5 12C2.5 9.38334 3.37083 7.13334 5.1125 5.25001C6.85417 3.36668 8.99167 2.30001 11.525 2.05001C11.7917 2.01668 12.0208 2.09584 12.2125 2.28751C12.4042 2.47918 12.5 2.71668 12.5 3.00001C12.5 3.26668 12.4125 3.50001 12.2375 3.70001C12.0625 3.90001 11.8417 4.01668 11.575 4.05001C9.55833 4.28334 7.875 5.15001 6.525 6.65001C5.175 8.15001 4.5 9.93334 4.5 12C4.5 14.0833 5.175 15.8708 6.525 17.3625C7.875 18.8542 9.55833 19.7167 11.575 19.95C11.8417 19.9833 12.0625 20.1 12.2375 20.3C12.4125 20.5 12.5 20.7333 12.5 21C12.5 21.2833 12.4042 21.5208 12.2125 21.7125C12.0208 21.9042 11.7917 21.9833 11.525 21.95C8.975 21.7 6.83333 20.6333 5.1 18.75C3.36667 16.8667 2.5 14.6167 2.5 12ZM12.5 14C11.95 14 11.4792 13.8042 11.0875 13.4125C10.6958 13.0208 10.5 12.55 10.5 12C10.5 11.9167 10.5042 11.8292 10.5125 11.7375C10.5208 11.6458 10.5417 11.5583 10.575 11.475L9.2 10.1C9.01667 9.91668 8.925 9.68334 8.925 9.40001C8.925 9.11668 9.01667 8.88334 9.2 8.70001C9.38333 8.51668 9.61667 8.42501 9.9 8.42501C10.1833 8.42501 10.4167 8.51668 10.6 8.70001L11.975 10.075C12.0417 10.0583 12.2167 10.0333 12.5 10C13.05 10 13.5208 10.1958 13.9125 10.5875C14.3042 10.9792 14.5 11.45 14.5 12C14.5 12.55 14.3042 13.0208 13.9125 13.4125C13.5208 13.8042 13.05 14 12.5 14Z" fill="#1D251D"/>
</g>
</svg>
