<svg width="25" height="24" viewBox="0 0 25 24" fill="none" xmlns="http://www.w3.org/2000/svg">
<mask id="mask0_173_29534" style="mask-type:alpha" maskUnits="userSpaceOnUse" x="0" y="0" width="25" height="24">
<rect x="0.5" width="24" height="24" fill="#D9D9D9"/>
</mask>
<g mask="url(#mask0_173_29534)">
<path d="M9.49997 15H6.39997C5.99997 15 5.70414 14.8209 5.51247 14.4625C5.3208 14.1042 5.34164 13.7584 5.57497 13.425L13.05 2.67503C13.2166 2.44169 13.4333 2.27919 13.7 2.18753C13.9666 2.09586 14.2416 2.10003 14.525 2.20003C14.8083 2.30003 15.0166 2.47503 15.15 2.72503C15.2833 2.97503 15.3333 3.24169 15.3 3.52503L14.5 10H18.375C18.8083 10 19.1125 10.1917 19.2875 10.575C19.4625 10.9584 19.4083 11.3167 19.125 11.65L10.9 21.5C10.7166 21.7167 10.4916 21.8584 10.225 21.925C9.9583 21.9917 9.69997 21.9667 9.44997 21.85C9.19997 21.7334 9.00414 21.5542 8.86247 21.3125C8.7208 21.0709 8.66664 20.8084 8.69997 20.525L9.49997 15Z" fill="#1D251D"/>
</g>
</svg>
