<svg width="25" height="24" viewBox="0 0 25 24" fill="none" xmlns="http://www.w3.org/2000/svg">
<mask id="mask0_804_57812" style="mask-type:alpha" maskUnits="userSpaceOnUse" x="0" y="0" width="25" height="24">
<rect x="0.5" width="24" height="24" fill="#D9D9D9"/>
</mask>
<g mask="url(#mask0_804_57812)">
<path d="M6.5 7.4V9C6.5 9.28333 6.40417 9.52083 6.2125 9.7125C6.02083 9.90417 5.78333 10 5.5 10C5.21667 10 4.97917 9.90417 4.7875 9.7125C4.59583 9.52083 4.5 9.28333 4.5 9V5C4.5 4.71667 4.59583 4.47917 4.7875 4.2875C4.97917 4.09583 5.21667 4 5.5 4H9.5C9.78333 4 10.0208 4.09583 10.2125 4.2875C10.4042 4.47917 10.5 4.71667 10.5 5C10.5 5.28333 10.4042 5.52083 10.2125 5.7125C10.0208 5.90417 9.78333 6 9.5 6H7.9L12.925 11.025C13.1083 11.2083 13.25 11.4208 13.35 11.6625C13.45 11.9042 13.5 12.1583 13.5 12.425V19C13.5 19.2833 13.4042 19.5208 13.2125 19.7125C13.0208 19.9042 12.7833 20 12.5 20C12.2167 20 11.9792 19.9042 11.7875 19.7125C11.5958 19.5208 11.5 19.2833 11.5 19V12.4L6.5 7.4ZM18.5 7.4L16.05 9.875C15.85 10.075 15.6125 10.175 15.3375 10.175C15.0625 10.175 14.825 10.075 14.625 9.875C14.425 9.675 14.325 9.43333 14.325 9.15C14.325 8.86667 14.425 8.625 14.625 8.425L17.1 6H15.5C15.2167 6 14.9792 5.90417 14.7875 5.7125C14.5958 5.52083 14.5 5.28333 14.5 5C14.5 4.71667 14.5958 4.47917 14.7875 4.2875C14.9792 4.09583 15.2167 4 15.5 4H19.5C19.7833 4 20.0208 4.09583 20.2125 4.2875C20.4042 4.47917 20.5 4.71667 20.5 5V9C20.5 9.28333 20.4042 9.52083 20.2125 9.7125C20.0208 9.90417 19.7833 10 19.5 10C19.2167 10 18.9792 9.90417 18.7875 9.7125C18.5958 9.52083 18.5 9.28333 18.5 9V7.4Z" fill="#1D251D"/>
</g>
</svg>
