<svg width="25" height="24" viewBox="0 0 25 24" fill="none" xmlns="http://www.w3.org/2000/svg">
<mask id="mask0_173_29561" style="mask-type:alpha" maskUnits="userSpaceOnUse" x="0" y="0" width="25" height="24">
<rect x="0.5" width="24" height="24" fill="#D9D9D9"/>
</mask>
<g mask="url(#mask0_173_29561)">
<path d="M12.275 19.075L16.425 10.975C16.5083 10.8083 16.5 10.6458 16.4 10.4875C16.3 10.3292 16.1583 10.25 15.975 10.25H13.3V5.025C13.3 4.89167 13.2375 4.8125 13.1125 4.7875C12.9875 4.7625 12.8917 4.80833 12.825 4.925L8.675 13.025C8.59167 13.1917 8.6 13.3542 8.7 13.5125C8.8 13.6708 8.94167 13.75 9.125 13.75H11.8V18.975C11.8 19.1083 11.8625 19.1875 11.9875 19.2125C12.1125 19.2375 12.2083 19.1917 12.275 19.075ZM12.5 22C11.1167 22 9.81667 21.7375 8.6 21.2125C7.38333 20.6875 6.325 19.975 5.425 19.075C4.525 18.175 3.8125 17.1167 3.2875 15.9C2.7625 14.6833 2.5 13.3833 2.5 12C2.5 10.6167 2.7625 9.31667 3.2875 8.1C3.8125 6.88333 4.525 5.825 5.425 4.925C6.325 4.025 7.38333 3.3125 8.6 2.7875C9.81667 2.2625 11.1167 2 12.5 2C13.8833 2 15.1833 2.2625 16.4 2.7875C17.6167 3.3125 18.675 4.025 19.575 4.925C20.475 5.825 21.1875 6.88333 21.7125 8.1C22.2375 9.31667 22.5 10.6167 22.5 12C22.5 13.3833 22.2375 14.6833 21.7125 15.9C21.1875 17.1167 20.475 18.175 19.575 19.075C18.675 19.975 17.6167 20.6875 16.4 21.2125C15.1833 21.7375 13.8833 22 12.5 22Z" fill="#1D251D"/>
</g>
</svg>
