<svg width="25" height="24" viewBox="0 0 25 24" fill="none" xmlns="http://www.w3.org/2000/svg">
<mask id="mask0_290_95111" style="mask-type:alpha" maskUnits="userSpaceOnUse" x="0" y="0" width="25" height="24">
<rect x="0.5" width="24" height="24" fill="#D9D9D9"/>
</mask>
<g mask="url(#mask0_290_95111)">
<path d="M10.0497 15.15L18.5247 6.675C18.7247 6.475 18.9581 6.375 19.2247 6.375C19.4914 6.375 19.7247 6.475 19.9247 6.675C20.1247 6.875 20.2247 7.1125 20.2247 7.3875C20.2247 7.6625 20.1247 7.9 19.9247 8.1L10.7497 17.3C10.5497 17.5 10.3164 17.6 10.0497 17.6C9.78305 17.6 9.54972 17.5 9.34972 17.3L5.04972 13C4.84972 12.8 4.75389 12.5625 4.76222 12.2875C4.77055 12.0125 4.87472 11.775 5.07472 11.575C5.27472 11.375 5.51222 11.275 5.78722 11.275C6.06222 11.275 6.29972 11.375 6.49972 11.575L10.0497 15.15Z" fill="#1D251D"/>
</g>
</svg>
