<svg width="25" height="24" viewBox="0 0 25 24" fill="none" xmlns="http://www.w3.org/2000/svg">
<mask id="mask0_173_29456" style="mask-type:alpha" maskUnits="userSpaceOnUse" x="0" y="0" width="25" height="24">
<rect x="0.5" width="24" height="24" fill="#D9D9D9"/>
</mask>
<g mask="url(#mask0_173_29456)">
<path d="M9.675 16H3.5C3.21667 16 2.97917 15.9042 2.7875 15.7125C2.59583 15.5208 2.5 15.2833 2.5 15C2.5 14.7167 2.59583 14.4792 2.7875 14.2875C2.97917 14.0958 3.21667 14 3.5 14H9.675L7.8 12.125C7.61667 11.9417 7.525 11.7125 7.525 11.4375C7.525 11.1625 7.61667 10.925 7.8 10.725C8 10.525 8.2375 10.425 8.5125 10.425C8.7875 10.425 9.025 10.525 9.225 10.725L12.8 14.3C12.9 14.4 12.9708 14.5083 13.0125 14.625C13.0542 14.7417 13.075 14.8667 13.075 15C13.075 15.1333 13.0542 15.2583 13.0125 15.375C12.9708 15.4917 12.9 15.6 12.8 15.7L9.2 19.3C9 19.5 8.76667 19.5958 8.5 19.5875C8.23333 19.5792 8 19.475 7.8 19.275C7.61667 19.075 7.52083 18.8417 7.5125 18.575C7.50417 18.3083 7.6 18.075 7.8 17.875L9.675 16ZM15.325 9.99999L17.2 11.875C17.3833 12.0583 17.475 12.2875 17.475 12.5625C17.475 12.8375 17.3833 13.075 17.2 13.275C17 13.475 16.7625 13.575 16.4875 13.575C16.2125 13.575 15.975 13.475 15.775 13.275L12.2 9.69999C12.1 9.59999 12.0292 9.49165 11.9875 9.37499C11.9458 9.25832 11.925 9.13332 11.925 8.99999C11.925 8.86665 11.9458 8.74165 11.9875 8.62499C12.0292 8.50832 12.1 8.39999 12.2 8.29999L15.8 4.69999C16 4.49999 16.2333 4.40415 16.5 4.41249C16.7667 4.42082 17 4.52499 17.2 4.72499C17.3833 4.92499 17.4792 5.15832 17.4875 5.42499C17.4958 5.69165 17.4 5.92499 17.2 6.12499L15.325 7.99999H21.5C21.7833 7.99999 22.0208 8.09582 22.2125 8.28749C22.4042 8.47915 22.5 8.71665 22.5 8.99999C22.5 9.28332 22.4042 9.52082 22.2125 9.71249C22.0208 9.90415 21.7833 9.99999 21.5 9.99999H15.325Z" fill="#1D251D"/>
</g>
</svg>
