<svg width="25" height="24" viewBox="0 0 25 24" fill="none" xmlns="http://www.w3.org/2000/svg">
<mask id="mask0_804_57804" style="mask-type:alpha" maskUnits="userSpaceOnUse" x="0" y="0" width="25" height="24">
<rect x="0.5" width="24" height="24" fill="#D9D9D9"/>
</mask>
<g mask="url(#mask0_804_57804)">
<path d="M17.5 22C17.2167 22 16.9792 21.9042 16.7875 21.7125C16.5958 21.5208 16.5 21.2833 16.5 21V19.75C15.85 19.5333 15.2667 19.2042 14.75 18.7625C14.2333 18.3208 13.825 17.7917 13.525 17.175C13.3917 16.925 13.3917 16.675 13.525 16.425C13.6583 16.175 13.8583 15.9917 14.125 15.875C14.3583 15.775 14.5917 15.7833 14.825 15.9C15.0583 16.0167 15.2417 16.1917 15.375 16.425C15.6417 16.9083 16.0083 17.2917 16.475 17.575C16.9417 17.8583 17.45 18 18 18H21C21.4167 18 21.7708 18.1458 22.0625 18.4375C22.3542 18.7292 22.5 19.0833 22.5 19.5V21C22.5 21.2833 22.4042 21.5208 22.2125 21.7125C22.0208 21.9042 21.7833 22 21.5 22H17.5ZM19.5 17C18.95 17 18.4792 16.8042 18.0875 16.4125C17.6958 16.0208 17.5 15.55 17.5 15C17.5 14.45 17.6958 13.9792 18.0875 13.5875C18.4792 13.1958 18.95 13 19.5 13C20.05 13 20.5208 13.1958 20.9125 13.5875C21.3042 13.9792 21.5 14.45 21.5 15C21.5 15.55 21.3042 16.0208 20.9125 16.4125C20.5208 16.8042 20.05 17 19.5 17ZM3.5 11C3.21667 11 2.97917 10.9042 2.7875 10.7125C2.59583 10.5208 2.5 10.2833 2.5 10V8.5C2.5 8.08333 2.64583 7.72917 2.9375 7.4375C3.22917 7.14583 3.58333 7 4 7H7C7.55 7 8.05833 6.85833 8.525 6.575C8.99167 6.29167 9.35833 5.90833 9.625 5.425C9.75833 5.19167 9.94167 5.00417 10.175 4.8625C10.4083 4.72083 10.65 4.69167 10.9 4.775C11.1833 4.85833 11.4 5.01667 11.55 5.25C11.7 5.48333 11.725 5.725 11.625 5.975C11.3417 6.65833 10.925 7.23333 10.375 7.7C9.825 8.16667 9.2 8.51667 8.5 8.75V10C8.5 10.2833 8.40417 10.5208 8.2125 10.7125C8.02083 10.9042 7.78333 11 7.5 11H3.5ZM5.5 6C4.95 6 4.47917 5.80417 4.0875 5.4125C3.69583 5.02083 3.5 4.55 3.5 4C3.5 3.45 3.69583 2.97917 4.0875 2.5875C4.47917 2.19583 4.95 2 5.5 2C6.05 2 6.52083 2.19583 6.9125 2.5875C7.30417 2.97917 7.5 3.45 7.5 4C7.5 4.55 7.30417 5.02083 6.9125 5.4125C6.52083 5.80417 6.05 6 5.5 6ZM10.5 14C10.2167 14 9.97917 13.9042 9.7875 13.7125C9.59583 13.5208 9.5 13.2833 9.5 13C9.5 10.7667 10.275 8.875 11.825 7.325C13.375 5.775 15.2667 5 17.5 5C17.7833 5 18.0208 5.09583 18.2125 5.2875C18.4042 5.47917 18.5 5.71667 18.5 6C18.5 6.28333 18.4042 6.52083 18.2125 6.7125C18.0208 6.90417 17.7833 7 17.5 7C15.8333 7 14.4167 7.58333 13.25 8.75C12.0833 9.91667 11.5 11.3333 11.5 13C11.5 13.2833 11.4042 13.5208 11.2125 13.7125C11.0208 13.9042 10.7833 14 10.5 14ZM14.5 14C14.2167 14 13.9792 13.9042 13.7875 13.7125C13.5958 13.5208 13.5 13.2833 13.5 13C13.5 11.9 13.8917 10.9583 14.675 10.175C15.4583 9.39167 16.4 9 17.5 9C17.7833 9 18.0208 9.09583 18.2125 9.2875C18.4042 9.47917 18.5 9.71667 18.5 10C18.5 10.2833 18.4042 10.5208 18.2125 10.7125C18.0208 10.9042 17.7833 11 17.5 11C16.95 11 16.4792 11.1958 16.0875 11.5875C15.6958 11.9792 15.5 12.45 15.5 13C15.5 13.2833 15.4042 13.5208 15.2125 13.7125C15.0208 13.9042 14.7833 14 14.5 14Z" fill="#1D251D"/>
</g>
</svg>
