<svg width="25" height="24" viewBox="0 0 25 24" fill="none" xmlns="http://www.w3.org/2000/svg">
<mask id="mask0_439_4907" style="mask-type:alpha" maskUnits="userSpaceOnUse" x="0" y="0" width="25" height="24">
<rect x="0.5" width="24" height="24" fill="#D9D9D9"/>
</mask>
<g mask="url(#mask0_439_4907)">
<path d="M17 19C17.7 19 18.2917 18.7583 18.775 18.275C19.2583 17.7917 19.5 17.2 19.5 16.5C19.5 15.8 19.2583 15.2083 18.775 14.725C18.2917 14.2417 17.7 14 17 14C16.3 14 15.7083 14.2417 15.225 14.725C14.7417 15.2083 14.5 15.8 14.5 16.5C14.5 17.2 14.7417 17.7917 15.225 18.275C15.7083 18.7583 16.3 19 17 19ZM22.8 22.3C22.6167 22.4833 22.3833 22.575 22.1 22.575C21.8167 22.575 21.5833 22.4833 21.4 22.3L19.4 20.3C19.05 20.5333 18.6708 20.7083 18.2625 20.825C17.8542 20.9417 17.4333 21 17 21C15.75 21 14.6875 20.5625 13.8125 19.6875C12.9375 18.8125 12.5 17.75 12.5 16.5C12.5 15.25 12.9375 14.1875 13.8125 13.3125C14.6875 12.4375 15.75 12 17 12C18.25 12 19.3125 12.4375 20.1875 13.3125C21.0625 14.1875 21.5 15.25 21.5 16.5C21.5 16.9333 21.4417 17.3542 21.325 17.7625C21.2083 18.1708 21.0333 18.55 20.8 18.9L22.8 20.9C22.9833 21.0833 23.075 21.3167 23.075 21.6C23.075 21.8833 22.9833 22.1167 22.8 22.3ZM5.5 22C4.95 22 4.47917 21.8042 4.0875 21.4125C3.69583 21.0208 3.5 20.55 3.5 20V4C3.5 3.45 3.69583 2.97917 4.0875 2.5875C4.47917 2.19583 4.95 2 5.5 2H12.675C12.9417 2 13.1958 2.05 13.4375 2.15C13.6792 2.25 13.8917 2.39167 14.075 2.575L18.925 7.425C19.1083 7.60833 19.25 7.82083 19.35 8.0625C19.45 8.30417 19.5 8.55833 19.5 8.825V9.275C19.5 9.575 19.3792 9.81667 19.1375 10C18.8958 10.1833 18.625 10.2333 18.325 10.15C18.1083 10.1 17.8917 10.0625 17.675 10.0375C17.4583 10.0125 17.2333 10 17 10C15.0333 10 13.45 10.6667 12.25 12C11.05 13.3333 10.45 14.8417 10.45 16.525C10.45 17.2583 10.5792 17.9833 10.8375 18.7C11.0958 19.4167 11.5 20.0917 12.05 20.725C12.2833 20.975 12.3375 21.25 12.2125 21.55C12.0875 21.85 11.875 22 11.575 22H5.5ZM12.5 4V8C12.5 8.28333 12.5958 8.52083 12.7875 8.7125C12.9792 8.90417 13.2167 9 13.5 9H17.5L12.5 4Z" fill="#1D251D"/>
</g>
</svg>
