<svg width="25" height="24" viewBox="0 0 25 24" fill="none" xmlns="http://www.w3.org/2000/svg">
<mask id="mask0_173_29463" style="mask-type:alpha" maskUnits="userSpaceOnUse" x="0" y="0" width="25" height="24">
<rect x="0.5" width="24" height="24" fill="#D9D9D9"/>
</mask>
<g mask="url(#mask0_173_29463)">
<path d="M6.3248 19L7.1998 19.9C7.38314 20.0833 7.47897 20.3125 7.4873 20.5875C7.49564 20.8625 7.3998 21.1 7.1998 21.3C7.01647 21.4833 6.78314 21.575 6.4998 21.575C6.21647 21.575 5.98314 21.4833 5.7998 21.3L3.1998 18.7C3.0998 18.6 3.02897 18.4917 2.9873 18.375C2.94564 18.2583 2.9248 18.1333 2.9248 18C2.9248 17.8667 2.94564 17.7417 2.9873 17.625C3.02897 17.5083 3.0998 17.4 3.1998 17.3L5.7998 14.7C5.98314 14.5167 6.2123 14.425 6.4873 14.425C6.7623 14.425 6.9998 14.5167 7.1998 14.7C7.3998 14.9 7.4998 15.1375 7.4998 15.4125C7.4998 15.6875 7.3998 15.925 7.1998 16.125L6.3248 17H18.6748L17.7998 16.1C17.6165 15.9167 17.5206 15.6875 17.5123 15.4125C17.504 15.1375 17.5998 14.9 17.7998 14.7C17.9831 14.5167 18.2165 14.425 18.4998 14.425C18.7831 14.425 19.0165 14.5167 19.1998 14.7L21.7998 17.3C21.8998 17.4 21.9706 17.5083 22.0123 17.625C22.054 17.7417 22.0748 17.8667 22.0748 18C22.0748 18.1333 22.054 18.2583 22.0123 18.375C21.9706 18.4917 21.8998 18.6 21.7998 18.7L19.1998 21.3C19.0165 21.4833 18.7873 21.575 18.5123 21.575C18.2373 21.575 17.9998 21.4833 17.7998 21.3C17.5998 21.1 17.4998 20.8625 17.4998 20.5875C17.4998 20.3125 17.5998 20.075 17.7998 19.875L18.6748 19H6.3248ZM11.4998 12V2C11.4998 1.71667 11.5956 1.47917 11.7873 1.2875C11.979 1.09583 12.2165 1 12.4998 1C12.7831 1 13.0206 1.09583 13.2123 1.2875C13.404 1.47917 13.4998 1.71667 13.4998 2V12C13.4998 12.2833 13.404 12.5208 13.2123 12.7125C13.0206 12.9042 12.7831 13 12.4998 13C12.2165 13 11.979 12.9042 11.7873 12.7125C11.5956 12.5208 11.4998 12.2833 11.4998 12ZM7.4998 10V4C7.4998 3.71667 7.59564 3.47917 7.7873 3.2875C7.97897 3.09583 8.21647 3 8.4998 3C8.78314 3 9.02064 3.09583 9.2123 3.2875C9.40397 3.47917 9.4998 3.71667 9.4998 4V10C9.4998 10.2833 9.40397 10.5208 9.2123 10.7125C9.02064 10.9042 8.78314 11 8.4998 11C8.21647 11 7.97897 10.9042 7.7873 10.7125C7.59564 10.5208 7.4998 10.2833 7.4998 10ZM15.4998 10V4C15.4998 3.71667 15.5956 3.47917 15.7873 3.2875C15.979 3.09583 16.2165 3 16.4998 3C16.7831 3 17.0206 3.09583 17.2123 3.2875C17.404 3.47917 17.4998 3.71667 17.4998 4V10C17.4998 10.2833 17.404 10.5208 17.2123 10.7125C17.0206 10.9042 16.7831 11 16.4998 11C16.2165 11 15.979 10.9042 15.7873 10.7125C15.5956 10.5208 15.4998 10.2833 15.4998 10ZM3.4998 7.5V6.5C3.4998 6.21667 3.59564 5.97917 3.7873 5.7875C3.97897 5.59583 4.21647 5.5 4.4998 5.5C4.78314 5.5 5.02064 5.59583 5.2123 5.7875C5.40397 5.97917 5.4998 6.21667 5.4998 6.5V7.5C5.4998 7.78333 5.40397 8.02083 5.2123 8.2125C5.02064 8.40417 4.78314 8.5 4.4998 8.5C4.21647 8.5 3.97897 8.40417 3.7873 8.2125C3.59564 8.02083 3.4998 7.78333 3.4998 7.5ZM19.4998 7.5V6.5C19.4998 6.21667 19.5956 5.97917 19.7873 5.7875C19.979 5.59583 20.2165 5.5 20.4998 5.5C20.7831 5.5 21.0206 5.59583 21.2123 5.7875C21.404 5.97917 21.4998 6.21667 21.4998 6.5V7.5C21.4998 7.78333 21.404 8.02083 21.2123 8.2125C21.0206 8.40417 20.7831 8.5 20.4998 8.5C20.2165 8.5 19.979 8.40417 19.7873 8.2125C19.5956 8.02083 19.4998 7.78333 19.4998 7.5Z" fill="#1D251D"/>
</g>
</svg>
