<svg width="25" height="24" viewBox="0 0 25 24" fill="none" xmlns="http://www.w3.org/2000/svg">
<mask id="mask0_832_211994" style="mask-type:alpha" maskUnits="userSpaceOnUse" x="0" y="0" width="25" height="24">
<rect x="0.5" width="24" height="24" fill="#D9D9D9"/>
</mask>
<g mask="url(#mask0_832_211994)">
<path d="M13.5003 21V19H17.5003V21C17.5003 21.2833 17.4044 21.5208 17.2128 21.7125C17.0211 21.9042 16.7836 22 16.5003 22H14.5003C14.2169 22 13.9794 21.9042 13.7878 21.7125C13.5961 21.5208 13.5003 21.2833 13.5003 21ZM7.50026 21V18H2.32526C1.92526 18 1.63359 17.825 1.45026 17.475C1.26693 17.125 1.28359 16.7833 1.50026 16.45L4.35026 12C3.96693 12 3.67943 11.8292 3.48776 11.4875C3.29609 11.1458 3.31693 10.8083 3.55026 10.475L8.67526 3.175C8.77526 3.04167 8.90026 2.9375 9.05026 2.8625C9.20026 2.7875 9.35026 2.75 9.50026 2.75C9.65026 2.75 9.80026 2.7875 9.95026 2.8625C10.1003 2.9375 10.2253 3.04167 10.3253 3.175L15.4503 10.475C15.6836 10.8083 15.7044 11.1458 15.5128 11.4875C15.3211 11.8292 15.0336 12 14.6503 12L17.5253 16.45C17.7419 16.7833 17.7586 17.125 17.5753 17.475C17.3919 17.825 17.1003 18 16.7003 18H11.5003V21C11.5003 21.2833 11.4044 21.5208 11.2128 21.7125C11.0211 21.9042 10.7836 22 10.5003 22H8.50026C8.21693 22 7.97943 21.9042 7.78776 21.7125C7.59609 21.5208 7.50026 21.2833 7.50026 21ZM19.7503 18L16.5003 13C16.9003 13 17.1961 12.8208 17.3878 12.4625C17.5794 12.1042 17.5586 11.7583 17.3253 11.425L13.1253 5.425L14.6753 3.175C14.7753 3.04167 14.9003 2.9375 15.0503 2.8625C15.2003 2.7875 15.3503 2.75 15.5003 2.75C15.6503 2.75 15.8003 2.7875 15.9503 2.8625C16.1003 2.9375 16.2253 3.04167 16.3253 3.175L21.4503 10.475C21.6836 10.8083 21.7044 11.1458 21.5128 11.4875C21.3211 11.8292 21.0336 12 20.6503 12L23.5003 16.45C23.7169 16.7833 23.7336 17.125 23.5503 17.475C23.3669 17.825 23.0753 18 22.6753 18H19.7503Z" fill="#1D251D"/>
</g>
</svg>
