<svg width="25" height="24" viewBox="0 0 25 24" fill="none" xmlns="http://www.w3.org/2000/svg">
<mask id="mask0_290_101117" style="mask-type:alpha" maskUnits="userSpaceOnUse" x="0" y="0" width="25" height="24">
<rect x="0.5" width="24" height="24" fill="#D9D9D9"/>
</mask>
<g mask="url(#mask0_290_101117)">
<path d="M5.5 11C4.95 11 4.47917 10.8042 4.0875 10.4125C3.69583 10.0208 3.5 9.55 3.5 9V5C3.5 4.45 3.69583 3.97917 4.0875 3.5875C4.47917 3.19583 4.95 3 5.5 3H9.5C10.05 3 10.5208 3.19583 10.9125 3.5875C11.3042 3.97917 11.5 4.45 11.5 5V9C11.5 9.55 11.3042 10.0208 10.9125 10.4125C10.5208 10.8042 10.05 11 9.5 11H5.5ZM5.5 21C4.95 21 4.47917 20.8042 4.0875 20.4125C3.69583 20.0208 3.5 19.55 3.5 19V15C3.5 14.45 3.69583 13.9792 4.0875 13.5875C4.47917 13.1958 4.95 13 5.5 13H9.5C10.05 13 10.5208 13.1958 10.9125 13.5875C11.3042 13.9792 11.5 14.45 11.5 15V19C11.5 19.55 11.3042 20.0208 10.9125 20.4125C10.5208 20.8042 10.05 21 9.5 21H5.5ZM15.5 11C14.95 11 14.4792 10.8042 14.0875 10.4125C13.6958 10.0208 13.5 9.55 13.5 9V5C13.5 4.45 13.6958 3.97917 14.0875 3.5875C14.4792 3.19583 14.95 3 15.5 3H19.5C20.05 3 20.5208 3.19583 20.9125 3.5875C21.3042 3.97917 21.5 4.45 21.5 5V9C21.5 9.55 21.3042 10.0208 20.9125 10.4125C20.5208 10.8042 20.05 11 19.5 11H15.5ZM15.5 21C14.95 21 14.4792 20.8042 14.0875 20.4125C13.6958 20.0208 13.5 19.55 13.5 19V15C13.5 14.45 13.6958 13.9792 14.0875 13.5875C14.4792 13.1958 14.95 13 15.5 13H19.5C20.05 13 20.5208 13.1958 20.9125 13.5875C21.3042 13.9792 21.5 14.45 21.5 15V19C21.5 19.55 21.3042 20.0208 20.9125 20.4125C20.5208 20.8042 20.05 21 19.5 21H15.5Z" fill="#1D251D"/>
</g>
</svg>
