<svg width="25" height="24" viewBox="0 0 25 24" fill="none" xmlns="http://www.w3.org/2000/svg">
<mask id="mask0_251_28522" style="mask-type:alpha" maskUnits="userSpaceOnUse" x="0" y="0" width="25" height="24">
<rect x="0.5" width="24" height="24" fill="#D9D9D9"/>
</mask>
<g mask="url(#mask0_251_28522)">
<path d="M12.45 18C12.8 18 13.0958 17.8792 13.3375 17.6375C13.5792 17.3958 13.7 17.1 13.7 16.75C13.7 16.4 13.5792 16.1042 13.3375 15.8625C13.0958 15.6208 12.8 15.5 12.45 15.5C12.1 15.5 11.8042 15.6208 11.5625 15.8625C11.3208 16.1042 11.2 16.4 11.2 16.75C11.2 17.1 11.3208 17.3958 11.5625 17.6375C11.8042 17.8792 12.1 18 12.45 18ZM12.5 22C11.1167 22 9.81667 21.7375 8.6 21.2125C7.38333 20.6875 6.325 19.975 5.425 19.075C4.525 18.175 3.8125 17.1167 3.2875 15.9C2.7625 14.6833 2.5 13.3833 2.5 12C2.5 10.6167 2.7625 9.31667 3.2875 8.1C3.8125 6.88333 4.525 5.825 5.425 4.925C6.325 4.025 7.38333 3.3125 8.6 2.7875C9.81667 2.2625 11.1167 2 12.5 2C13.8833 2 15.1833 2.2625 16.4 2.7875C17.6167 3.3125 18.675 4.025 19.575 4.925C20.475 5.825 21.1875 6.88333 21.7125 8.1C22.2375 9.31667 22.5 10.6167 22.5 12C22.5 13.3833 22.2375 14.6833 21.7125 15.9C21.1875 17.1167 20.475 18.175 19.575 19.075C18.675 19.975 17.6167 20.6875 16.4 21.2125C15.1833 21.7375 13.8833 22 12.5 22ZM12.6 7.7C13.0167 7.7 13.3792 7.83333 13.6875 8.1C13.9958 8.36667 14.15 8.7 14.15 9.1C14.15 9.46667 14.0375 9.79167 13.8125 10.075C13.5875 10.3583 13.3333 10.625 13.05 10.875C12.6667 11.2083 12.3292 11.575 12.0375 11.975C11.7458 12.375 11.6 12.825 11.6 13.325C11.6 13.5583 11.6875 13.7542 11.8625 13.9125C12.0375 14.0708 12.2417 14.15 12.475 14.15C12.725 14.15 12.9375 14.0667 13.1125 13.9C13.2875 13.7333 13.4 13.525 13.45 13.275C13.5167 12.925 13.6667 12.6125 13.9 12.3375C14.1333 12.0625 14.3833 11.8 14.65 11.55C15.0333 11.1833 15.3625 10.7833 15.6375 10.35C15.9125 9.91667 16.05 9.43333 16.05 8.9C16.05 8.05 15.7042 7.35417 15.0125 6.8125C14.3208 6.27083 13.5167 6 12.6 6C11.9667 6 11.3625 6.13333 10.7875 6.4C10.2125 6.66667 9.775 7.075 9.475 7.625C9.35833 7.825 9.32083 8.0375 9.3625 8.2625C9.40417 8.4875 9.51667 8.65833 9.7 8.775C9.93333 8.90833 10.175 8.95 10.425 8.9C10.675 8.85 10.8833 8.70833 11.05 8.475C11.2333 8.225 11.4625 8.03333 11.7375 7.9C12.0125 7.76667 12.3 7.7 12.6 7.7Z" fill="#1D251D"/>
</g>
</svg>
