<svg width="25" height="24" viewBox="0 0 25 24" fill="none" xmlns="http://www.w3.org/2000/svg">
<mask id="mask0_173_29582" style="mask-type:alpha" maskUnits="userSpaceOnUse" x="0" y="0" width="25" height="24">
<rect x="0.5" width="24" height="24" fill="#D9D9D9"/>
</mask>
<g mask="url(#mask0_173_29582)">
<path d="M12.5 21C10.4 21 8.54167 20.3625 6.925 19.0875C5.30833 17.8125 4.25833 16.1833 3.775 14.2C3.70833 13.95 3.75833 13.7208 3.925 13.5125C4.09167 13.3042 4.31667 13.1833 4.6 13.15C4.86667 13.1167 5.10833 13.1667 5.325 13.3C5.54167 13.4333 5.69167 13.6333 5.775 13.9C6.175 15.4 7 16.625 8.25 17.575C9.5 18.525 10.9167 19 12.5 19C14.45 19 16.1042 18.3208 17.4625 16.9625C18.8208 15.6042 19.5 13.95 19.5 12C19.5 10.05 18.8208 8.39583 17.4625 7.0375C16.1042 5.67917 14.45 5 12.5 5C11.35 5 10.275 5.26667 9.275 5.8C8.275 6.33333 7.43333 7.06667 6.75 8H8.5C8.78333 8 9.02083 8.09583 9.2125 8.2875C9.40417 8.47917 9.5 8.71667 9.5 9C9.5 9.28333 9.40417 9.52083 9.2125 9.7125C9.02083 9.90417 8.78333 10 8.5 10H4.5C4.21667 10 3.97917 9.90417 3.7875 9.7125C3.59583 9.52083 3.5 9.28333 3.5 9V5C3.5 4.71667 3.59583 4.47917 3.7875 4.2875C3.97917 4.09583 4.21667 4 4.5 4C4.78333 4 5.02083 4.09583 5.2125 4.2875C5.40417 4.47917 5.5 4.71667 5.5 5V6.35C6.35 5.28333 7.3875 4.45833 8.6125 3.875C9.8375 3.29167 11.1333 3 12.5 3C13.75 3 14.9208 3.2375 16.0125 3.7125C17.1042 4.1875 18.0542 4.82917 18.8625 5.6375C19.6708 6.44583 20.3125 7.39583 20.7875 8.4875C21.2625 9.57917 21.5 10.75 21.5 12C21.5 13.25 21.2625 14.4208 20.7875 15.5125C20.3125 16.6042 19.6708 17.5542 18.8625 18.3625C18.0542 19.1708 17.1042 19.8125 16.0125 20.2875C14.9208 20.7625 13.75 21 12.5 21ZM13.5 11.6L16 14.1C16.1833 14.2833 16.275 14.5167 16.275 14.8C16.275 15.0833 16.1833 15.3167 16 15.5C15.8167 15.6833 15.5833 15.775 15.3 15.775C15.0167 15.775 14.7833 15.6833 14.6 15.5L11.8 12.7C11.7 12.6 11.625 12.4875 11.575 12.3625C11.525 12.2375 11.5 12.1083 11.5 11.975V8C11.5 7.71667 11.5958 7.47917 11.7875 7.2875C11.9792 7.09583 12.2167 7 12.5 7C12.7833 7 13.0208 7.09583 13.2125 7.2875C13.4042 7.47917 13.5 7.71667 13.5 8V11.6Z" fill="#1D251D"/>
</g>
</svg>
