<svg width="25" height="24" viewBox="0 0 25 24" fill="none" xmlns="http://www.w3.org/2000/svg">
<mask id="mask0_183_1263" style="mask-type:alpha" maskUnits="userSpaceOnUse" x="0" y="0" width="25" height="24">
<rect x="0.5" width="24" height="24" fill="#D9D9D9"/>
</mask>
<g mask="url(#mask0_183_1263)">
<path d="M8.5 20H16.5V17C16.5 15.9 16.1083 14.9583 15.325 14.175C14.5417 13.3917 13.6 13 12.5 13C11.4 13 10.4583 13.3917 9.675 14.175C8.89167 14.9583 8.5 15.9 8.5 17V20ZM5.5 22C5.21667 22 4.97917 21.9042 4.7875 21.7125C4.59583 21.5208 4.5 21.2833 4.5 21C4.5 20.7167 4.59583 20.4792 4.7875 20.2875C4.97917 20.0958 5.21667 20 5.5 20H6.5V17C6.5 15.9833 6.7375 15.0292 7.2125 14.1375C7.6875 13.2458 8.35 12.5333 9.2 12C8.35 11.4667 7.6875 10.7542 7.2125 9.8625C6.7375 8.97083 6.5 8.01667 6.5 7V4H5.5C5.21667 4 4.97917 3.90417 4.7875 3.7125C4.59583 3.52083 4.5 3.28333 4.5 3C4.5 2.71667 4.59583 2.47917 4.7875 2.2875C4.97917 2.09583 5.21667 2 5.5 2H19.5C19.7833 2 20.0208 2.09583 20.2125 2.2875C20.4042 2.47917 20.5 2.71667 20.5 3C20.5 3.28333 20.4042 3.52083 20.2125 3.7125C20.0208 3.90417 19.7833 4 19.5 4H18.5V7C18.5 8.01667 18.2625 8.97083 17.7875 9.8625C17.3125 10.7542 16.65 11.4667 15.8 12C16.65 12.5333 17.3125 13.2458 17.7875 14.1375C18.2625 15.0292 18.5 15.9833 18.5 17V20H19.5C19.7833 20 20.0208 20.0958 20.2125 20.2875C20.4042 20.4792 20.5 20.7167 20.5 21C20.5 21.2833 20.4042 21.5208 20.2125 21.7125C20.0208 21.9042 19.7833 22 19.5 22H5.5Z" fill="#1D251D"/>
</g>
</svg>
