<svg width="33" height="32" viewBox="0 0 33 32" fill="none" xmlns="http://www.w3.org/2000/svg">
<path d="M14.7015 30C13.3186 30 11.9689 29.7226 10.6899 29.176C8.20949 28.1156 6.29532 26.1638 5.30008 23.6802L5.29968 23.6792C4.30423 21.1946 4.34759 18.4756 5.42176 16.0232C6.02598 14.6436 6.9497 13.401 8.0976 12.4224C8.03426 10.9256 8.31878 9.4094 8.92301 8.0296C10.5275 4.3668 14.1736 2 18.2121 2C19.594 2 20.9429 2.277 22.2211 2.823C22.2219 2.8234 22.2237 2.824 22.2237 2.824C24.7041 3.8844 26.618 5.8362 27.6135 8.3198C28.6093 10.8048 28.5662 13.524 27.4918 15.9768C26.8876 17.3564 25.9637 18.599 24.816 19.5776C24.8795 21.0744 24.595 22.5906 23.9906 23.9704C22.3859 27.6332 18.7398 30 14.7015 30ZM8.72919 15.496C8.36154 15.9722 8.05264 16.494 7.80827 17.0522C7.01863 18.8552 6.98327 20.8588 7.70917 22.6938C8.44486 24.5538 9.8691 26.0138 11.7197 26.805C12.6712 27.2118 13.6747 27.418 14.7023 27.418C17.7036 27.418 20.4126 25.6612 21.6041 22.9422L21.6045 22.9414C21.8472 22.3872 22.0201 21.8116 22.1202 21.225C20.8825 21.737 19.5372 22.006 18.2021 22.006C16.8196 22.006 15.4703 21.7288 14.1918 21.1822C12.7072 20.5474 11.3856 19.561 10.3704 18.3296C9.67928 17.4922 9.11702 16.52 8.72919 15.496ZM10.8713 13.6158C11.3934 15.9316 13.0085 17.8656 15.221 18.8116C16.1723 19.2184 17.1757 19.4246 18.2029 19.4246C19.556 19.4246 20.8795 19.0654 22.0422 18.3846C21.5199 16.0688 19.9049 14.1348 17.6926 13.1888C16.7413 12.782 15.7381 12.5758 14.7107 12.5758C13.3576 12.5756 12.034 12.9348 10.8713 13.6158ZM14.7119 9.9938C16.0943 9.9938 17.4436 10.271 18.7224 10.8176C20.207 11.4522 21.5283 12.4386 22.5438 13.6702C23.2343 14.5078 23.7966 15.4798 24.1846 16.504C24.5522 16.0276 24.8611 15.5058 25.1055 14.9478C25.9015 13.1302 25.9337 11.115 25.1958 9.2738C24.4573 7.431 23.0363 5.9826 21.1942 5.195C20.2428 4.7882 19.2393 4.582 18.2117 4.582C15.21 4.582 12.5008 6.3392 11.3097 9.0586C11.067 9.6128 10.8941 10.1882 10.794 10.775C12.0316 10.263 13.3767 9.9938 14.7119 9.9938Z" fill="#1D251D"/>
</svg>
