<svg width="25" height="24" viewBox="0 0 25 24" fill="none" xmlns="http://www.w3.org/2000/svg">
<mask id="mask0_88_257" style="mask-type:alpha" maskUnits="userSpaceOnUse" x="0" y="0" width="25" height="24">
<rect x="0.5" width="24" height="24" fill="#D9D9D9"/>
</mask>
<g mask="url(#mask0_88_257)">
<path d="M12.4998 10.8L8.5998 14.7C8.41647 14.8834 8.18314 14.975 7.8998 14.975C7.61647 14.975 7.38314 14.8834 7.1998 14.7C7.01647 14.5167 6.9248 14.2834 6.9248 14C6.9248 13.7167 7.01647 13.4834 7.1998 13.3L11.7998 8.70002C11.9998 8.50002 12.2331 8.40002 12.4998 8.40002C12.7665 8.40002 12.9998 8.50002 13.1998 8.70002L17.7998 13.3C17.9831 13.4834 18.0748 13.7167 18.0748 14C18.0748 14.2834 17.9831 14.5167 17.7998 14.7C17.6165 14.8834 17.3831 14.975 17.0998 14.975C16.8165 14.975 16.5831 14.8834 16.3998 14.7L12.4998 10.8Z" fill="#1D251D"/>
</g>
</svg>
