<svg width="25" height="24" viewBox="0 0 25 24" fill="none" xmlns="http://www.w3.org/2000/svg">
<mask id="mask0_147_84376" style="mask-type:alpha" maskUnits="userSpaceOnUse" x="0" y="0" width="25" height="24">
<rect x="0.5" width="24" height="24" fill="#D9D9D9"/>
</mask>
<g mask="url(#mask0_147_84376)">
<path d="M12.5 17C11.1167 17 9.9375 16.5125 8.9625 15.5375C7.9875 14.5625 7.5 13.3833 7.5 12C7.5 10.6167 7.9875 9.4375 8.9625 8.4625C9.9375 7.4875 11.1167 7 12.5 7C13.8833 7 15.0625 7.4875 16.0375 8.4625C17.0125 9.4375 17.5 10.6167 17.5 12C17.5 13.3833 17.0125 14.5625 16.0375 15.5375C15.0625 16.5125 13.8833 17 12.5 17ZM2.5 13C2.21667 13 1.97917 12.9042 1.7875 12.7125C1.59583 12.5208 1.5 12.2833 1.5 12C1.5 11.7167 1.59583 11.4792 1.7875 11.2875C1.97917 11.0958 2.21667 11 2.5 11H4.5C4.78333 11 5.02083 11.0958 5.2125 11.2875C5.40417 11.4792 5.5 11.7167 5.5 12C5.5 12.2833 5.40417 12.5208 5.2125 12.7125C5.02083 12.9042 4.78333 13 4.5 13H2.5ZM20.5 13C20.2167 13 19.9792 12.9042 19.7875 12.7125C19.5958 12.5208 19.5 12.2833 19.5 12C19.5 11.7167 19.5958 11.4792 19.7875 11.2875C19.9792 11.0958 20.2167 11 20.5 11H22.5C22.7833 11 23.0208 11.0958 23.2125 11.2875C23.4042 11.4792 23.5 11.7167 23.5 12C23.5 12.2833 23.4042 12.5208 23.2125 12.7125C23.0208 12.9042 22.7833 13 22.5 13H20.5ZM12.5 5C12.2167 5 11.9792 4.90417 11.7875 4.7125C11.5958 4.52083 11.5 4.28333 11.5 4V2C11.5 1.71667 11.5958 1.47917 11.7875 1.2875C11.9792 1.09583 12.2167 1 12.5 1C12.7833 1 13.0208 1.09583 13.2125 1.2875C13.4042 1.47917 13.5 1.71667 13.5 2V4C13.5 4.28333 13.4042 4.52083 13.2125 4.7125C13.0208 4.90417 12.7833 5 12.5 5ZM12.5 23C12.2167 23 11.9792 22.9042 11.7875 22.7125C11.5958 22.5208 11.5 22.2833 11.5 22V20C11.5 19.7167 11.5958 19.4792 11.7875 19.2875C11.9792 19.0958 12.2167 19 12.5 19C12.7833 19 13.0208 19.0958 13.2125 19.2875C13.4042 19.4792 13.5 19.7167 13.5 20V22C13.5 22.2833 13.4042 22.5208 13.2125 22.7125C13.0208 22.9042 12.7833 23 12.5 23ZM6.15 7.05L5.075 6C4.875 5.81667 4.77917 5.58333 4.7875 5.3C4.79583 5.01667 4.89167 4.775 5.075 4.575C5.275 4.375 5.51667 4.275 5.8 4.275C6.08333 4.275 6.31667 4.375 6.5 4.575L7.55 5.65C7.73333 5.85 7.825 6.08333 7.825 6.35C7.825 6.61667 7.73333 6.85 7.55 7.05C7.36667 7.25 7.1375 7.34583 6.8625 7.3375C6.5875 7.32917 6.35 7.23333 6.15 7.05ZM18.5 19.425L17.45 18.35C17.2667 18.15 17.175 17.9125 17.175 17.6375C17.175 17.3625 17.2667 17.1333 17.45 16.95C17.6333 16.75 17.8625 16.6542 18.1375 16.6625C18.4125 16.6708 18.65 16.7667 18.85 16.95L19.925 18C20.125 18.1833 20.2208 18.4167 20.2125 18.7C20.2042 18.9833 20.1083 19.225 19.925 19.425C19.725 19.625 19.4833 19.725 19.2 19.725C18.9167 19.725 18.6833 19.625 18.5 19.425ZM17.45 7.05C17.25 6.86667 17.1542 6.6375 17.1625 6.3625C17.1708 6.0875 17.2667 5.85 17.45 5.65L18.5 4.575C18.6833 4.375 18.9167 4.27917 19.2 4.2875C19.4833 4.29583 19.725 4.39167 19.925 4.575C20.125 4.775 20.225 5.01667 20.225 5.3C20.225 5.58333 20.125 5.81667 19.925 6L18.85 7.05C18.65 7.23333 18.4167 7.325 18.15 7.325C17.8833 7.325 17.65 7.23333 17.45 7.05ZM5.075 19.425C4.875 19.225 4.775 18.9833 4.775 18.7C4.775 18.4167 4.875 18.1833 5.075 18L6.15 16.95C6.35 16.7667 6.5875 16.675 6.8625 16.675C7.1375 16.675 7.36667 16.7667 7.55 16.95C7.75 17.1333 7.84583 17.3625 7.8375 17.6375C7.82917 17.9125 7.73333 18.15 7.55 18.35L6.5 19.425C6.31667 19.625 6.08333 19.7208 5.8 19.7125C5.51667 19.7042 5.275 19.6083 5.075 19.425Z" fill="#1D251D"/>
</g>
</svg>
