<svg width="25" height="24" viewBox="0 0 25 24" fill="none" xmlns="http://www.w3.org/2000/svg">
<mask id="mask0_173_29433" style="mask-type:alpha" maskUnits="userSpaceOnUse" x="0" y="0" width="25" height="24">
<rect x="0.5" width="24" height="24" fill="#D9D9D9"/>
</mask>
<g mask="url(#mask0_173_29433)">
<path d="M19.5 9C18.55 9 17.725 8.71667 17.025 8.15C16.325 7.58333 15.8583 6.86667 15.625 6H9.35C9.16667 6.7 8.82083 7.30417 8.3125 7.8125C7.80417 8.32083 7.2 8.66667 6.5 8.85V15.125C7.36667 15.3583 8.08333 15.825 8.65 16.525C9.21667 17.225 9.5 18.05 9.5 19C9.5 20.1 9.10833 21.0417 8.325 21.825C7.54167 22.6083 6.6 23 5.5 23C4.4 23 3.45833 22.6083 2.675 21.825C1.89167 21.0417 1.5 20.1 1.5 19C1.5 18.05 1.78333 17.225 2.35 16.525C2.91667 15.825 3.63333 15.3583 4.5 15.125V8.85C3.63333 8.61667 2.91667 8.15 2.35 7.45C1.78333 6.75 1.5 5.93333 1.5 5C1.5 3.9 1.89167 2.95833 2.675 2.175C3.45833 1.39167 4.4 1 5.5 1C6.43333 1 7.25 1.28333 7.95 1.85C8.65 2.41667 9.11667 3.13333 9.35 4H15.625C15.8583 3.13333 16.325 2.41667 17.025 1.85C17.725 1.28333 18.55 1 19.5 1C20.6 1 21.5417 1.39167 22.325 2.175C23.1083 2.95833 23.5 3.9 23.5 5C23.5 6.1 23.1083 7.04167 22.325 7.825C21.5417 8.60833 20.6 9 19.5 9ZM19.5 23C18.4 23 17.4583 22.6083 16.675 21.825C15.8917 21.0417 15.5 20.1 15.5 19C15.5 17.9 15.8917 16.9583 16.675 16.175C17.4583 15.3917 18.4 15 19.5 15C20.6 15 21.5417 15.3917 22.325 16.175C23.1083 16.9583 23.5 17.9 23.5 19C23.5 20.1 23.1083 21.0417 22.325 21.825C21.5417 22.6083 20.6 23 19.5 23Z" fill="#1D251D"/>
</g>
</svg>
