<svg width="25" height="24" viewBox="0 0 25 24" fill="none" xmlns="http://www.w3.org/2000/svg">
<mask id="mask0_738_12441" style="mask-type:alpha" maskUnits="userSpaceOnUse" x="0" y="0" width="25" height="24">
<rect x="0.5" width="24" height="24" fill="#D9D9D9"/>
</mask>
<g mask="url(#mask0_738_12441)">
<path d="M3.5 17.15V10C3.5 9.46667 3.69583 9.01667 4.0875 8.65C4.47917 8.28333 4.94167 8.11667 5.475 8.15C6.79167 8.35 8.04583 8.7375 9.2375 9.3125C10.4292 9.8875 11.5167 10.6333 12.5 11.55C13.4833 10.6333 14.5708 9.8875 15.7625 9.3125C16.9542 8.7375 18.2083 8.35 19.525 8.15C20.0583 8.11667 20.5208 8.28333 20.9125 8.65C21.3042 9.01667 21.5 9.46667 21.5 10V17.15C21.5 17.6833 21.325 18.1375 20.975 18.5125C20.625 18.8875 20.1833 19.0917 19.65 19.125C18.5833 19.2917 17.55 19.5667 16.55 19.95C15.55 20.3333 14.6167 20.8417 13.75 21.475C13.5667 21.625 13.3708 21.7375 13.1625 21.8125C12.9542 21.8875 12.7333 21.925 12.5 21.925C12.2667 21.925 12.0458 21.8875 11.8375 21.8125C11.6292 21.7375 11.4333 21.625 11.25 21.475C10.3833 20.8417 9.45 20.3333 8.45 19.95C7.45 19.5667 6.41667 19.2917 5.35 19.125C4.81667 19.0917 4.375 18.8875 4.025 18.5125C3.675 18.1375 3.5 17.6833 3.5 17.15ZM12.5 9C11.4 9 10.4583 8.60833 9.675 7.825C8.89167 7.04167 8.5 6.1 8.5 5C8.5 3.9 8.89167 2.95833 9.675 2.175C10.4583 1.39167 11.4 1 12.5 1C13.6 1 14.5417 1.39167 15.325 2.175C16.1083 2.95833 16.5 3.9 16.5 5C16.5 6.1 16.1083 7.04167 15.325 7.825C14.5417 8.60833 13.6 9 12.5 9Z" fill="#1D251D"/>
</g>
</svg>
