<svg width="25" height="24" viewBox="0 0 25 24" fill="none" xmlns="http://www.w3.org/2000/svg">
<mask id="mask0_147_84375" style="mask-type:alpha" maskUnits="userSpaceOnUse" x="0" y="0" width="25" height="24">
<rect x="0.5" width="24" height="24" fill="#D9D9D9"/>
</mask>
<g mask="url(#mask0_147_84375)">
<path d="M14.5 22C13.1167 22 11.8167 21.7375 10.6 21.2125C9.38333 20.6875 8.325 19.975 7.425 19.075C6.525 18.175 5.8125 17.1167 5.2875 15.9C4.7625 14.6833 4.5 13.3833 4.5 12C4.5 10.6167 4.7625 9.31667 5.2875 8.1C5.8125 6.88333 6.525 5.825 7.425 4.925C8.325 4.025 9.38333 3.3125 10.6 2.7875C11.8167 2.2625 13.1167 2 14.5 2C15.0833 2 15.6667 2.05833 16.25 2.175C16.8333 2.29167 17.3917 2.46667 17.925 2.7C18.125 2.78333 18.275 2.9125 18.375 3.0875C18.475 3.2625 18.525 3.44167 18.525 3.625C18.525 3.775 18.4958 3.91667 18.4375 4.05C18.3792 4.18333 18.2833 4.3 18.15 4.4C16.9833 5.31667 16.0833 6.44167 15.45 7.775C14.8167 9.10833 14.5 10.5167 14.5 12C14.5 13.5 14.8083 14.9167 15.425 16.25C16.0417 17.5833 16.9417 18.7 18.125 19.6C18.2583 19.7 18.3542 19.8208 18.4125 19.9625C18.4708 20.1042 18.5 20.25 18.5 20.4C18.5 20.5833 18.45 20.7625 18.35 20.9375C18.25 21.1125 18.1 21.2417 17.9 21.325C17.3667 21.5583 16.8125 21.7292 16.2375 21.8375C15.6625 21.9458 15.0833 22 14.5 22Z" fill="#1D251D"/>
</g>
</svg>
