<svg width="25" height="24" viewBox="0 0 25 24" fill="none" xmlns="http://www.w3.org/2000/svg">
<mask id="mask0_147_84377" style="mask-type:alpha" maskUnits="userSpaceOnUse" x="0" y="0" width="25" height="24">
<rect x="0.5" width="24" height="24" fill="#D9D9D9"/>
</mask>
<g mask="url(#mask0_147_84377)">
<path d="M11.5 21C9.26667 21 7.375 20.225 5.825 18.675C4.275 17.125 3.5 15.2333 3.5 13C3.5 12.0333 3.65833 11.1125 3.975 10.2375C4.29167 9.3625 4.73333 8.57917 5.3 7.8875C5.86667 7.19583 6.54583 6.62083 7.3375 6.1625C8.12917 5.70417 8.99167 5.41667 9.925 5.3C10.3417 5.25 10.6667 5.39583 10.9 5.7375C11.1333 6.07917 11.1417 6.43333 10.925 6.8C10.725 7.13333 10.6042 7.4875 10.5625 7.8625C10.5208 8.2375 10.5 8.61667 10.5 9C10.5 10.6667 11.0833 12.0833 12.25 13.25C13.4167 14.4167 14.8333 15 16.5 15C16.7 15 16.9 14.9958 17.1 14.9875C17.3 14.9792 17.5 14.9417 17.7 14.875C18.05 14.7417 18.3625 14.8042 18.6375 15.0625C18.9125 15.3208 18.9917 15.625 18.875 15.975C18.3917 17.5417 17.4583 18.7708 16.075 19.6625C14.6917 20.5542 13.1667 21 11.5 21ZM16.9 9L16.4 10.4C16.3333 10.5833 16.225 10.7292 16.075 10.8375C15.925 10.9458 15.7583 11 15.575 11C15.2583 11 15.0125 10.8708 14.8375 10.6125C14.6625 10.3542 14.625 10.0833 14.725 9.8L17.275 2.625C17.3417 2.44167 17.4583 2.29167 17.625 2.175C17.7917 2.05833 17.975 2 18.175 2H18.825C19.025 2 19.2083 2.05833 19.375 2.175C19.5417 2.29167 19.6583 2.44167 19.725 2.625L22.275 9.8C22.375 10.0833 22.3375 10.3542 22.1625 10.6125C21.9875 10.8708 21.7417 11 21.425 11C21.2417 11 21.075 10.9458 20.925 10.8375C20.775 10.7292 20.6667 10.5833 20.6 10.4L20.1 9H16.9ZM17.35 7.65H19.65L18.5 4L17.35 7.65Z" fill="#1D251D"/>
</g>
</svg>
