<svg width="25" height="24" viewBox="0 0 25 24" fill="none" xmlns="http://www.w3.org/2000/svg">
<mask id="mask0_263_15002" style="mask-type:alpha" maskUnits="userSpaceOnUse" x="0" y="0" width="25" height="24">
<rect x="0.5" width="24" height="24" fill="#D9D9D9"/>
</mask>
<g mask="url(#mask0_263_15002)">
<path d="M9.50044 16L8.67544 19.275C8.62544 19.4917 8.5171 19.6667 8.35044 19.8C8.18377 19.9333 7.98377 20 7.75044 20C7.43377 20 7.17544 19.875 6.97544 19.625C6.77544 19.375 6.7171 19.1 6.80044 18.8L7.50044 16H4.77544C4.4421 16 4.17544 15.8708 3.97544 15.6125C3.77544 15.3542 3.7171 15.0667 3.80044 14.75C3.85044 14.5167 3.9671 14.3333 4.15044 14.2C4.33377 14.0667 4.5421 14 4.77544 14H8.00044L9.00044 10H6.27544C5.9421 10 5.67544 9.87083 5.47544 9.6125C5.27544 9.35417 5.2171 9.06667 5.30044 8.75C5.35044 8.51667 5.4671 8.33333 5.65044 8.2C5.83377 8.06667 6.0421 8 6.27544 8H9.50044L10.3254 4.725C10.3754 4.50833 10.4838 4.33333 10.6504 4.2C10.8171 4.06667 11.0171 4 11.2504 4C11.5671 4 11.8254 4.125 12.0254 4.375C12.2254 4.625 12.2838 4.9 12.2004 5.2L11.5004 8H15.5004L16.3254 4.725C16.3754 4.50833 16.4838 4.33333 16.6504 4.2C16.8171 4.06667 17.0171 4 17.2504 4C17.5671 4 17.8254 4.125 18.0254 4.375C18.2254 4.625 18.2838 4.9 18.2004 5.2L17.5004 8H20.2254C20.5588 8 20.8254 8.12917 21.0254 8.3875C21.2254 8.64583 21.2838 8.93333 21.2004 9.25C21.1504 9.48333 21.0338 9.66667 20.8504 9.8C20.6671 9.93333 20.4588 10 20.2254 10H17.0004L16.0004 14H18.7254C19.0588 14 19.3254 14.1292 19.5254 14.3875C19.7254 14.6458 19.7838 14.9333 19.7004 15.25C19.6504 15.4833 19.5338 15.6667 19.3504 15.8C19.1671 15.9333 18.9588 16 18.7254 16H15.5004L14.6754 19.275C14.6254 19.4917 14.5171 19.6667 14.3504 19.8C14.1838 19.9333 13.9838 20 13.7504 20C13.4338 20 13.1754 19.875 12.9754 19.625C12.7754 19.375 12.7171 19.1 12.8004 18.8L13.5004 16H9.50044ZM10.0004 14H14.0004L15.0004 10H11.0004L10.0004 14Z" fill="#1D251D"/>
</g>
</svg>
