<svg width="25" height="24" viewBox="0 0 25 24" fill="none" xmlns="http://www.w3.org/2000/svg">
<mask id="mask0_93_4560" style="mask-type:alpha" maskUnits="userSpaceOnUse" x="0" y="0" width="25" height="24">
<rect x="0.5" width="24" height="24" fill="#D9D9D9"/>
</mask>
<g mask="url(#mask0_93_4560)">
<path d="M5.5 21C4.95 21 4.47917 20.8042 4.0875 20.4125C3.69583 20.0208 3.5 19.55 3.5 19V5C3.5 4.45 3.69583 3.97917 4.0875 3.5875C4.47917 3.19583 4.95 3 5.5 3H19.5C20.05 3 20.5208 3.19583 20.9125 3.5875C21.3042 3.97917 21.5 4.45 21.5 5V11C21.5 11.2833 21.4042 11.5208 21.2125 11.7125C21.0208 11.9042 20.7833 12 20.5 12C20.2167 12 19.9792 11.9042 19.7875 11.7125C19.5958 11.5208 19.5 11.2833 19.5 11V5H5.5V19H11.5C11.7833 19 12.0208 19.0958 12.2125 19.2875C12.4042 19.4792 12.5 19.7167 12.5 20C12.5 20.2833 12.4042 20.5208 12.2125 20.7125C12.0208 20.9042 11.7833 21 11.5 21H5.5ZM18.1 19L9.5 10.4C9.31667 10.2167 9.22083 9.9875 9.2125 9.7125C9.20417 9.4375 9.3 9.2 9.5 9C9.68333 8.81667 9.91667 8.725 10.2 8.725C10.4833 8.725 10.7167 8.81667 10.9 9L19.5 17.575V15C19.5 14.7167 19.5958 14.4792 19.7875 14.2875C19.9792 14.0958 20.2167 14 20.5 14C20.7833 14 21.0208 14.0958 21.2125 14.2875C21.4042 14.4792 21.5 14.7167 21.5 15V20C21.5 20.2833 21.4042 20.5208 21.2125 20.7125C21.0208 20.9042 20.7833 21 20.5 21H15.5C15.2167 21 14.9792 20.9042 14.7875 20.7125C14.5958 20.5208 14.5 20.2833 14.5 20C14.5 19.7167 14.5958 19.4792 14.7875 19.2875C14.9792 19.0958 15.2167 19 15.5 19H18.1Z" fill="#1D251D"/>
</g>
</svg>
