<svg width="25" height="24" viewBox="0 0 25 24" fill="none" xmlns="http://www.w3.org/2000/svg">
<mask id="mask0_93_4561" style="mask-type:alpha" maskUnits="userSpaceOnUse" x="0" y="0" width="25" height="24">
<rect x="0.5" width="24" height="24" fill="#D9D9D9"/>
</mask>
<g mask="url(#mask0_93_4561)">
<path d="M5.5 21C4.95 21 4.47917 20.8042 4.0875 20.4125C3.69583 20.0208 3.5 19.55 3.5 19V5C3.5 4.45 3.69583 3.97917 4.0875 3.5875C4.47917 3.19583 4.95 3 5.5 3H11.5C11.7833 3 12.0208 3.09583 12.2125 3.2875C12.4042 3.47917 12.5 3.71667 12.5 4C12.5 4.28333 12.4042 4.52083 12.2125 4.7125C12.0208 4.90417 11.7833 5 11.5 5H5.5V19H19.5V13C19.5 12.7167 19.5958 12.4792 19.7875 12.2875C19.9792 12.0958 20.2167 12 20.5 12C20.7833 12 21.0208 12.0958 21.2125 12.2875C21.4042 12.4792 21.5 12.7167 21.5 13V19C21.5 19.55 21.3042 20.0208 20.9125 20.4125C20.5208 20.8042 20.05 21 19.5 21H5.5ZM19.5 6.4L10.9 15C10.7167 15.1833 10.4833 15.275 10.2 15.275C9.91667 15.275 9.68333 15.1833 9.5 15C9.31667 14.8167 9.225 14.5833 9.225 14.3C9.225 14.0167 9.31667 13.7833 9.5 13.6L18.1 5H15.5C15.2167 5 14.9792 4.90417 14.7875 4.7125C14.5958 4.52083 14.5 4.28333 14.5 4C14.5 3.71667 14.5958 3.47917 14.7875 3.2875C14.9792 3.09583 15.2167 3 15.5 3H20.5C20.7833 3 21.0208 3.09583 21.2125 3.2875C21.4042 3.47917 21.5 3.71667 21.5 4V9C21.5 9.28333 21.4042 9.52083 21.2125 9.7125C21.0208 9.90417 20.7833 10 20.5 10C20.2167 10 19.9792 9.90417 19.7875 9.7125C19.5958 9.52083 19.5 9.28333 19.5 9V6.4Z" fill="#1D251D"/>
</g>
</svg>
