<svg width="25" height="24" viewBox="0 0 25 24" fill="none" xmlns="http://www.w3.org/2000/svg">
<mask id="mask0_263_20289" style="mask-type:alpha" maskUnits="userSpaceOnUse" x="0" y="0" width="25" height="24">
<rect x="0.5" width="24" height="24" fill="#D9D9D9"/>
</mask>
<g mask="url(#mask0_263_20289)">
<path d="M6.50038 21.5C5.53371 21.5 4.70871 21.1583 4.02538 20.475C3.34204 19.7917 3.00038 18.9667 3.00038 18C3.00038 17.0333 3.34204 16.2083 4.02538 15.525C4.70871 14.8417 5.53371 14.5 6.50038 14.5C7.46704 14.5 8.29204 14.8417 8.97538 15.525C9.65871 16.2083 10.0004 17.0333 10.0004 18C10.0004 18.3667 9.94621 18.7208 9.83788 19.0625C9.72954 19.4042 9.56704 19.725 9.35038 20.025V19.35C9.85038 19.5667 10.367 19.7292 10.9004 19.8375C11.4337 19.9458 11.967 20 12.5004 20C14.5504 20 16.3212 19.3333 17.8129 18C19.3045 16.6667 20.1754 15.0083 20.4254 13.025C20.4587 12.7417 20.5754 12.5 20.7754 12.3C20.9754 12.1 21.217 12 21.5004 12C21.7837 12 22.0212 12.1 22.2129 12.3C22.4045 12.5 22.4837 12.7417 22.4504 13.025C22.1837 15.5583 21.1087 17.6875 19.2254 19.4125C17.342 21.1375 15.1004 22 12.5004 22C11.7504 22 11.017 21.9208 10.3004 21.7625C9.58371 21.6042 8.89204 21.3667 8.22538 21.05C7.95871 21.2 7.67954 21.3125 7.38788 21.3875C7.09621 21.4625 6.80038 21.5 6.50038 21.5ZM12.5004 15.5C11.5337 15.5 10.7087 15.1583 10.0254 14.475C9.34204 13.7917 9.00038 12.9667 9.00038 12C9.00038 11.0333 9.34204 10.2083 10.0254 9.525C10.7087 8.84167 11.5337 8.5 12.5004 8.5C13.467 8.5 14.292 8.84167 14.9754 9.525C15.6587 10.2083 16.0004 11.0333 16.0004 12C16.0004 12.9667 15.6587 13.7917 14.9754 14.475C14.292 15.1583 13.467 15.5 12.5004 15.5ZM12.5004 4C10.4504 4 8.67954 4.66667 7.18788 6C5.69621 7.33333 4.82538 8.99167 4.57538 10.975C4.54204 11.2583 4.42538 11.5 4.22538 11.7C4.02538 11.9 3.78371 12 3.50038 12C3.21704 12 2.97954 11.9 2.78788 11.7C2.59621 11.5 2.51704 11.2583 2.55038 10.975C2.81704 8.44167 3.89204 6.3125 5.77538 4.5875C7.65871 2.8625 9.90038 2 12.5004 2C13.2504 2 13.9837 2.07917 14.7004 2.2375C15.417 2.39583 16.1087 2.63333 16.7754 2.95C17.042 2.8 17.3212 2.6875 17.6129 2.6125C17.9045 2.5375 18.2004 2.5 18.5004 2.5C19.467 2.5 20.292 2.84167 20.9754 3.525C21.6587 4.20833 22.0004 5.03333 22.0004 6C22.0004 6.96667 21.6587 7.79167 20.9754 8.475C20.292 9.15833 19.467 9.5 18.5004 9.5C17.5337 9.5 16.7087 9.15833 16.0254 8.475C15.342 7.79167 15.0004 6.96667 15.0004 6C15.0004 5.63333 15.0545 5.27917 15.1629 4.9375C15.2712 4.59583 15.4337 4.275 15.6504 3.975V4.65C15.1504 4.43333 14.6337 4.27083 14.1004 4.1625C13.567 4.05417 13.0337 4 12.5004 4Z" fill="#1D251D"/>
</g>
</svg>
