<svg width="25" height="24" viewBox="0 0 25 24" fill="none" xmlns="http://www.w3.org/2000/svg">
<mask id="mask0_804_57796" style="mask-type:alpha" maskUnits="userSpaceOnUse" x="0" y="0" width="25" height="24">
<rect x="0.5" width="24" height="24" fill="#D9D9D9"/>
</mask>
<g mask="url(#mask0_804_57796)">
<path d="M12.5001 20C11.0001 20 9.69174 19.5292 8.57508 18.5875C7.45841 17.6458 6.79174 16.45 6.57508 15C6.54174 14.7333 6.61674 14.5 6.80008 14.3C6.98341 14.1 7.21674 14 7.50008 14C7.78341 14 8.02091 14.0708 8.21258 14.2125C8.40424 14.3542 8.52508 14.5417 8.57508 14.775C8.75841 15.725 9.22091 16.5 9.96258 17.1C10.7042 17.7 11.5501 18 12.5001 18C13.4501 18 14.2959 17.7 15.0376 17.1C15.7792 16.5 16.2417 15.725 16.4251 14.775C16.4751 14.5417 16.5959 14.3542 16.7876 14.2125C16.9792 14.0708 17.2167 14 17.5001 14C17.7834 14 18.0167 14.1 18.2001 14.3C18.3834 14.5 18.4584 14.7333 18.4251 15C18.2084 16.45 17.5417 17.6458 16.4251 18.5875C15.3084 19.5292 14.0001 20 12.5001 20ZM11.5001 11.15V6C11.5001 5.71667 11.5959 5.47917 11.7876 5.2875C11.9792 5.09583 12.2167 5 12.5001 5C12.7834 5 13.0209 5.09583 13.2126 5.2875C13.4042 5.47917 13.5001 5.71667 13.5001 6V11.15L14.4001 10.25C14.6001 10.05 14.8334 9.95417 15.1001 9.9625C15.3667 9.97083 15.6001 10.075 15.8001 10.275C15.9834 10.475 16.0792 10.7083 16.0876 10.975C16.0959 11.2417 16.0001 11.475 15.8001 11.675L13.2001 14.275C13.1001 14.375 12.9917 14.4458 12.8751 14.4875C12.7584 14.5292 12.6334 14.55 12.5001 14.55C12.3667 14.55 12.2417 14.5292 12.1251 14.4875C12.0084 14.4458 11.9001 14.375 11.8001 14.275L9.20008 11.675C9.01674 11.4917 8.92508 11.2625 8.92508 10.9875C8.92508 10.7125 9.01674 10.475 9.20008 10.275C9.40008 10.075 9.63758 9.975 9.91258 9.975C10.1876 9.975 10.4251 10.075 10.6251 10.275L11.5001 11.15Z" fill="#1D251D"/>
</g>
</svg>
