<svg width="33" height="32" viewBox="0 0 33 32" fill="none" xmlns="http://www.w3.org/2000/svg">
<path fill-rule="evenodd" clip-rule="evenodd" d="M16.583 30C24.315 30 30.583 23.732 30.583 16C30.583 8.26801 24.315 2 16.583 2C8.85102 2 2.58301 8.26801 2.58301 16C2.58301 23.732 8.85102 30 16.583 30ZM12.5442 20.5284L11.9744 21.4726H13.3079C15.0404 21.4726 16.4499 20.0542 16.4499 18.3107V18.0328C16.4499 16.2893 15.0404 14.8709 13.3079 14.8709H11.5583C11.0935 14.8709 10.3137 14.6705 10.3137 13.3285C10.3137 12.6312 10.872 12.064 11.5583 12.064H17.5332L18.0788 11.1241L17.5307 10.1666L11.5583 10.1666C10.7275 10.1666 9.9412 10.4965 9.34435 11.0955C8.7459 11.6962 8.41631 12.4892 8.41631 13.3285V13.6064C8.41631 14.4457 8.7459 15.2387 9.34435 15.8393C9.94117 16.4384 10.7275 16.7683 11.5583 16.7683H13.3079C13.8088 16.7683 14.1988 16.9996 14.4058 17.4196C14.5535 17.7191 14.5724 18.0532 14.5724 18.3107C14.5724 19.008 14.0051 19.5752 13.3079 19.5752H11.9717L12.5442 20.5284ZM20.3195 21.4725C18.587 21.4725 17.1775 20.0541 17.1775 18.3107V18.0328C17.1775 16.2892 18.587 14.8709 20.3195 14.8709H22.0743C22.5391 14.8709 23.319 14.6705 23.319 13.3285C23.319 12.6312 22.7606 12.0639 22.0743 12.0639H20.6473L21.1701 11.1283L20.6401 10.1665H22.0743C22.9051 10.1665 23.6914 10.4964 24.2883 11.0954C24.8868 11.6961 25.2163 12.4891 25.2163 13.3284V13.6063C25.2163 14.4456 24.8868 15.2387 24.2883 15.8393C23.6915 16.4383 22.9052 16.7682 22.0743 16.7682H20.3195C19.8185 16.7682 19.4286 16.9995 19.2216 17.4195C19.0739 17.7191 19.055 18.0531 19.055 18.3106C19.055 19.0079 19.6222 19.5752 20.3195 19.5752H21.4817L22.0743 20.5268L21.4826 21.4725H20.3195V21.4725ZM17.8936 10.1665L18.4515 11.1288L17.9121 12.0546H18.4304L18.9647 11.1294L18.4119 10.1665H17.8936ZM9.82571 20.532L9.26785 19.5698H9.78615L10.3389 20.5326L9.80466 21.4579H9.28636L9.82571 20.532ZM21.929 19.5698L22.4868 20.532L21.9475 21.4579H22.4658L23 20.5326L22.4473 19.5698H21.929ZM19.3771 11.1288L18.8193 10.1665H19.3376L19.8903 11.1294L19.3561 12.0546H18.8378L19.3771 11.1288ZM10.1934 19.5698L10.7512 20.532L10.2119 21.4579H10.7302L11.2645 20.5326L10.7117 19.5698H10.1934ZM23.4125 20.532L22.8546 19.5698H23.3729L23.9257 20.5326L23.3914 21.4579H22.8731L23.4125 20.532ZM19.7448 10.1665L20.3026 11.1288L19.7633 12.0546H20.2816L20.8159 11.1294L20.2631 10.1665H19.7448ZM11.6766 20.532L11.1188 19.5698H11.6371L12.1899 20.5326L11.6556 21.4579H11.1373L11.6766 20.532ZM23.7801 19.5698L24.338 20.532L23.7986 21.4579H24.3169L24.8512 20.5326L24.2984 19.5698H23.7801Z" fill="#1D251D"/>
</svg>
