<svg width="25" height="24" viewBox="0 0 25 24" fill="none" xmlns="http://www.w3.org/2000/svg">
<mask id="mask0_804_57788" style="mask-type:alpha" maskUnits="userSpaceOnUse" x="0" y="0" width="25" height="24">
<rect x="0.5" width="24" height="24" fill="#D9D9D9"/>
</mask>
<g mask="url(#mask0_804_57788)">
<path d="M14.525 23.2C14.2417 23.2 14 23.1042 13.8 22.9125C13.6 22.7208 13.5 22.4833 13.5 22.2C13.5 21.9167 13.5958 21.6792 13.7875 21.4875C13.9792 21.2958 14.2167 21.2 14.5 21.2C16.45 21.2 18.1042 20.5208 19.4625 19.1625C20.8208 17.8042 21.5 16.15 21.5 14.2C21.5 13.9167 21.5958 13.6792 21.7875 13.4875C21.9792 13.2958 22.2167 13.2 22.5 13.2C22.7833 13.2 23.0208 13.2958 23.2125 13.4875C23.4042 13.6792 23.5 13.9167 23.5 14.2C23.5 15.4333 23.2625 16.5958 22.7875 17.6875C22.3125 18.7792 21.6708 19.7333 20.8625 20.55C20.0542 21.3667 19.1042 22.0125 18.0125 22.4875C16.9208 22.9625 15.7583 23.2 14.525 23.2ZM14.525 19.2C14.2417 19.2 14 19.1042 13.8 18.9125C13.6 18.7208 13.5 18.4833 13.5 18.2C13.5 17.9167 13.5958 17.6792 13.7875 17.4875C13.9792 17.2958 14.2167 17.2 14.5 17.2C15.3333 17.2 16.0417 16.9083 16.625 16.325C17.2083 15.7417 17.5 15.0333 17.5 14.2C17.5 13.9167 17.5958 13.6792 17.7875 13.4875C17.9792 13.2958 18.2167 13.2 18.5 13.2C18.7833 13.2 19.0208 13.2958 19.2125 13.4875C19.4042 13.6792 19.5 13.9167 19.5 14.2C19.4833 15.5833 18.9958 16.7583 18.0375 17.725C17.0792 18.6917 15.9083 19.1833 14.525 19.2ZM6.05 22.575C5.8 22.575 5.55 22.525 5.3 22.425C5.05 22.325 4.825 22.1833 4.625 22L1.075 18.45C0.891667 18.25 0.75 18.025 0.65 17.775C0.55 17.525 0.5 17.275 0.5 17.025C0.5 16.7583 0.55 16.5042 0.65 16.2625C0.75 16.0208 0.891667 15.8083 1.075 15.625L4.25 12.45C4.63333 12.0667 5.10833 11.8708 5.675 11.8625C6.24167 11.8542 6.71667 12.0417 7.1 12.425L8.35 13.675L9.05 12.975L7.8 11.725C7.41667 11.3417 7.225 10.875 7.225 10.325C7.225 9.77501 7.41667 9.30835 7.8 8.92501L9.225 7.50001C9.60833 7.11668 10.0792 6.92501 10.6375 6.92501C11.1958 6.92501 11.6667 7.11668 12.05 7.50001L13.3 8.75001L14 8.05001L12.75 6.80001C12.3667 6.41668 12.175 5.94585 12.175 5.38751C12.175 4.82918 12.3667 4.35835 12.75 3.97501L15.925 0.800012C16.125 0.600012 16.35 0.450012 16.6 0.350012C16.85 0.250012 17.1 0.200012 17.35 0.200012C17.6 0.200012 17.8458 0.250012 18.0875 0.350012C18.3292 0.450012 18.55 0.600012 18.75 0.800012L22.3 4.35001C22.5 4.53335 22.6458 4.74585 22.7375 4.98751C22.8292 5.22918 22.875 5.48335 22.875 5.75001C22.875 6.00001 22.8292 6.25001 22.7375 6.50001C22.6458 6.75001 22.5 6.97501 22.3 7.17501L19.125 10.35C18.7417 10.7333 18.2708 10.925 17.7125 10.925C17.1542 10.925 16.6833 10.7333 16.3 10.35L15.05 9.10001L14.35 9.80001L15.6 11.05C15.9833 11.4333 16.1708 11.9042 16.1625 12.4625C16.1542 13.0208 15.9583 13.4917 15.575 13.875L14.175 15.275C13.7917 15.6583 13.3208 15.85 12.7625 15.85C12.2042 15.85 11.7333 15.6583 11.35 15.275L10.1 14.025L9.4 14.725L10.65 15.975C11.0333 16.3583 11.2208 16.8333 11.2125 17.4C11.2042 17.9667 11.0083 18.4417 10.625 18.825L7.45 22C7.26667 22.1833 7.05417 22.325 6.8125 22.425C6.57083 22.525 6.31667 22.575 6.05 22.575ZM6.05 20.6L7.1 19.55L3.55 16L2.5 17.05L6.05 20.6ZM8.175 18.475L9.225 17.425L5.675 13.875L4.625 14.925L8.175 18.475ZM17.725 8.92501L18.775 7.87501L15.225 4.32501L14.175 5.37501L17.725 8.92501ZM19.85 6.80001L20.9 5.75001L17.35 2.20001L16.3 3.25001L19.85 6.80001Z" fill="#1D251D"/>
</g>
</svg>
