<svg width="25" height="24" viewBox="0 0 25 24" fill="none" xmlns="http://www.w3.org/2000/svg">
<mask id="mask0_176_34948" style="mask-type:alpha" maskUnits="userSpaceOnUse" x="0" y="0" width="25" height="24">
<rect x="0.5" width="24" height="24" fill="#D9D9D9"/>
</mask>
<g mask="url(#mask0_176_34948)">
<path d="M9.4998 13C9.21647 13 8.97897 12.9042 8.7873 12.7125C8.59564 12.5208 8.4998 12.2833 8.4998 12V5.82499L6.6248 7.69999C6.44147 7.88332 6.2123 7.97499 5.9373 7.97499C5.6623 7.97499 5.4248 7.88332 5.2248 7.69999C5.0248 7.49999 4.9248 7.26249 4.9248 6.98749C4.9248 6.71249 5.0248 6.47499 5.2248 6.27499L8.7998 2.69999C8.8998 2.59999 9.00814 2.52915 9.1248 2.48749C9.24147 2.44582 9.36647 2.42499 9.4998 2.42499C9.63314 2.42499 9.75814 2.44582 9.8748 2.48749C9.99147 2.52915 10.0998 2.59999 10.1998 2.69999L13.7998 6.29999C13.9998 6.49999 14.0956 6.73332 14.0873 6.99999C14.079 7.26665 13.9748 7.49999 13.7748 7.69999C13.5748 7.88332 13.3415 7.97915 13.0748 7.98749C12.8081 7.99582 12.5748 7.89999 12.3748 7.69999L10.4998 5.82499V12C10.4998 12.2833 10.404 12.5208 10.2123 12.7125C10.0206 12.9042 9.78314 13 9.4998 13ZM15.4998 21.575C15.3665 21.575 15.2415 21.5542 15.1248 21.5125C15.0081 21.4708 14.8998 21.4 14.7998 21.3L11.1998 17.7C10.9998 17.5 10.904 17.2667 10.9123 17C10.9206 16.7333 11.0248 16.5 11.2248 16.3C11.4248 16.1167 11.6581 16.0208 11.9248 16.0125C12.1915 16.0042 12.4248 16.1 12.6248 16.3L14.4998 18.175V12C14.4998 11.7167 14.5956 11.4792 14.7873 11.2875C14.979 11.0958 15.2165 11 15.4998 11C15.7831 11 16.0206 11.0958 16.2123 11.2875C16.404 11.4792 16.4998 11.7167 16.4998 12V18.175L18.3748 16.3C18.5581 16.1167 18.7873 16.025 19.0623 16.025C19.3373 16.025 19.5748 16.1167 19.7748 16.3C19.9748 16.5 20.0748 16.7375 20.0748 17.0125C20.0748 17.2875 19.9748 17.525 19.7748 17.725L16.1998 21.3C16.0998 21.4 15.9915 21.4708 15.8748 21.5125C15.7581 21.5542 15.6331 21.575 15.4998 21.575Z" fill="#1D251D"/>
</g>
</svg>
