<svg width="25" height="24" viewBox="0 0 25 24" fill="none" xmlns="http://www.w3.org/2000/svg">
<mask id="mask0_804_57780" style="mask-type:alpha" maskUnits="userSpaceOnUse" x="0" y="0" width="25" height="24">
<rect x="0.5" width="24" height="24" fill="#D9D9D9"/>
</mask>
<g mask="url(#mask0_804_57780)">
<path d="M5.50011 15.15V8C5.50011 6.9 5.89178 5.95833 6.67511 5.175C7.45844 4.39167 8.40011 4 9.50011 4C10.6001 4 11.5418 4.39167 12.3251 5.175C13.1084 5.95833 13.5001 6.9 13.5001 8V15C13.5001 15.55 13.6959 16.0208 14.0876 16.4125C14.4793 16.8042 14.9501 17 15.5001 17C16.0501 17 16.5209 16.8042 16.9126 16.4125C17.3043 16.0208 17.5001 15.55 17.5001 15V7.85L16.6251 8.725C16.4251 8.925 16.1876 9.02083 15.9126 9.0125C15.6376 9.00417 15.4001 8.9 15.2001 8.7C15.0168 8.5 14.9209 8.26667 14.9126 8C14.9043 7.73333 15.0001 7.5 15.2001 7.3L17.8001 4.7C17.9001 4.6 18.0084 4.52917 18.1251 4.4875C18.2418 4.44583 18.3668 4.425 18.5001 4.425C18.6334 4.425 18.7584 4.44583 18.8751 4.4875C18.9918 4.52917 19.1001 4.6 19.2001 4.7L21.8001 7.3C22.0001 7.5 22.0959 7.73333 22.0876 8C22.0793 8.26667 21.9834 8.5 21.8001 8.7C21.6001 8.9 21.3626 9.00417 21.0876 9.0125C20.8126 9.02083 20.5751 8.925 20.3751 8.725L19.5001 7.85V15C19.5001 16.1 19.1084 17.0417 18.3251 17.825C17.5418 18.6083 16.6001 19 15.5001 19C14.4001 19 13.4584 18.6083 12.6751 17.825C11.8918 17.0417 11.5001 16.1 11.5001 15V8C11.5001 7.45 11.3043 6.97917 10.9126 6.5875C10.5209 6.19583 10.0501 6 9.50011 6C8.95011 6 8.47928 6.19583 8.08761 6.5875C7.69594 6.97917 7.50011 7.45 7.50011 8V15.15L8.37511 14.275C8.57511 14.075 8.81261 13.9792 9.08761 13.9875C9.36261 13.9958 9.60011 14.1 9.80011 14.3C9.98344 14.5 10.0793 14.7333 10.0876 15C10.0959 15.2667 10.0001 15.5 9.80011 15.7L7.20011 18.3C7.10011 18.4 6.99178 18.4708 6.87511 18.5125C6.75844 18.5542 6.63344 18.575 6.50011 18.575C6.36678 18.575 6.24178 18.5542 6.12511 18.5125C6.00844 18.4708 5.90011 18.4 5.80011 18.3L3.20011 15.7C3.00011 15.5 2.90428 15.2667 2.91261 15C2.92094 14.7333 3.01678 14.5 3.20011 14.3C3.40011 14.1 3.63761 13.9958 3.91261 13.9875C4.18761 13.9792 4.42511 14.075 4.62511 14.275L5.50011 15.15Z" fill="#1D251D"/>
</g>
</svg>
