<svg width="25" height="24" viewBox="0 0 25 24" fill="none" xmlns="http://www.w3.org/2000/svg">
<mask id="mask0_173_29449" style="mask-type:alpha" maskUnits="userSpaceOnUse" x="0" y="0" width="25" height="24">
<rect x="0.5" width="24" height="24" fill="#D9D9D9"/>
</mask>
<g mask="url(#mask0_173_29449)">
<path d="M6.3248 17L8.2248 18.9C8.4248 19.1 8.52064 19.3333 8.5123 19.6C8.50397 19.8667 8.3998 20.1 8.1998 20.3C7.9998 20.4833 7.76647 20.5792 7.4998 20.5875C7.23314 20.5958 6.9998 20.5 6.7998 20.3L3.1998 16.7C3.0998 16.6 3.02897 16.4917 2.9873 16.375C2.94564 16.2583 2.9248 16.1333 2.9248 16C2.9248 15.8667 2.94564 15.7417 2.9873 15.625C3.02897 15.5083 3.0998 15.4 3.1998 15.3L6.7998 11.7C6.98314 11.5167 7.2123 11.425 7.4873 11.425C7.7623 11.425 7.9998 11.5167 8.1998 11.7C8.3998 11.9 8.4998 12.1375 8.4998 12.4125C8.4998 12.6875 8.3998 12.925 8.1998 13.125L6.3248 15H20.4998C20.7831 15 21.0206 15.0958 21.2123 15.2875C21.404 15.4792 21.4998 15.7167 21.4998 16C21.4998 16.2833 21.404 16.5208 21.2123 16.7125C21.0206 16.9042 20.7831 17 20.4998 17H6.3248ZM18.6748 8.99999H4.4998C4.21647 8.99999 3.97897 8.90415 3.7873 8.71249C3.59564 8.52082 3.4998 8.28332 3.4998 7.99999C3.4998 7.71665 3.59564 7.47915 3.7873 7.28749C3.97897 7.09582 4.21647 6.99999 4.4998 6.99999H18.6748L16.7748 5.09999C16.5748 4.89999 16.479 4.66665 16.4873 4.39999C16.4956 4.13332 16.5998 3.89999 16.7998 3.69999C16.9998 3.51665 17.2331 3.42082 17.4998 3.41249C17.7665 3.40415 17.9998 3.49999 18.1998 3.69999L21.7998 7.29999C21.8998 7.39999 21.9706 7.50832 22.0123 7.62499C22.054 7.74165 22.0748 7.86665 22.0748 7.99999C22.0748 8.13332 22.054 8.25832 22.0123 8.37499C21.9706 8.49165 21.8998 8.59999 21.7998 8.69999L18.1998 12.3C18.0165 12.4833 17.7873 12.575 17.5123 12.575C17.2373 12.575 16.9998 12.4833 16.7998 12.3C16.5998 12.1 16.4998 11.8625 16.4998 11.5875C16.4998 11.3125 16.5998 11.075 16.7998 10.875L18.6748 8.99999Z" fill="#1D251D"/>
</g>
</svg>
