<svg width="25" height="24" viewBox="0 0 25 24" fill="none" xmlns="http://www.w3.org/2000/svg">
<mask id="mask0_773_29095" style="mask-type:alpha" maskUnits="userSpaceOnUse" x="0" y="0" width="25" height="24">
<rect x="0.5" width="24" height="24" fill="#D9D9D9"/>
</mask>
<g mask="url(#mask0_773_29095)">
<path d="M4.5 20C3.95 20 3.47917 19.8042 3.0875 19.4125C2.69583 19.0208 2.5 18.55 2.5 18V6C2.5 5.45 2.69583 4.97917 3.0875 4.5875C3.47917 4.19583 3.95 4 4.5 4H20.5C21.05 4 21.5208 4.19583 21.9125 4.5875C22.3042 4.97917 22.5 5.45 22.5 6V18C22.5 18.55 22.3042 19.0208 21.9125 19.4125C21.5208 19.8042 21.05 20 20.5 20H4.5ZM13.5 18H20.5V6H13.5V18ZM6.5 16H9.5C9.78333 16 10.0208 15.9042 10.2125 15.7125C10.4042 15.5208 10.5 15.2833 10.5 15C10.5 14.7167 10.4042 14.4792 10.2125 14.2875C10.0208 14.0958 9.78333 14 9.5 14H6.5C6.21667 14 5.97917 14.0958 5.7875 14.2875C5.59583 14.4792 5.5 14.7167 5.5 15C5.5 15.2833 5.59583 15.5208 5.7875 15.7125C5.97917 15.9042 6.21667 16 6.5 16ZM6.5 13H9.5C9.78333 13 10.0208 12.9042 10.2125 12.7125C10.4042 12.5208 10.5 12.2833 10.5 12C10.5 11.7167 10.4042 11.4792 10.2125 11.2875C10.0208 11.0958 9.78333 11 9.5 11H6.5C6.21667 11 5.97917 11.0958 5.7875 11.2875C5.59583 11.4792 5.5 11.7167 5.5 12C5.5 12.2833 5.59583 12.5208 5.7875 12.7125C5.97917 12.9042 6.21667 13 6.5 13ZM6.5 10H9.5C9.78333 10 10.0208 9.90417 10.2125 9.7125C10.4042 9.52083 10.5 9.28333 10.5 9C10.5 8.71667 10.4042 8.47917 10.2125 8.2875C10.0208 8.09583 9.78333 8 9.5 8H6.5C6.21667 8 5.97917 8.09583 5.7875 8.2875C5.59583 8.47917 5.5 8.71667 5.5 9C5.5 9.28333 5.59583 9.52083 5.7875 9.7125C5.97917 9.90417 6.21667 10 6.5 10ZM15.5 16H18.5C18.7833 16 19.0208 15.9042 19.2125 15.7125C19.4042 15.5208 19.5 15.2833 19.5 15C19.5 14.7167 19.4042 14.4792 19.2125 14.2875C19.0208 14.0958 18.7833 14 18.5 14H15.5C15.2167 14 14.9792 14.0958 14.7875 14.2875C14.5958 14.4792 14.5 14.7167 14.5 15C14.5 15.2833 14.5958 15.5208 14.7875 15.7125C14.9792 15.9042 15.2167 16 15.5 16ZM15.5 13H18.5C18.7833 13 19.0208 12.9042 19.2125 12.7125C19.4042 12.5208 19.5 12.2833 19.5 12C19.5 11.7167 19.4042 11.4792 19.2125 11.2875C19.0208 11.0958 18.7833 11 18.5 11H15.5C15.2167 11 14.9792 11.0958 14.7875 11.2875C14.5958 11.4792 14.5 11.7167 14.5 12C14.5 12.2833 14.5958 12.5208 14.7875 12.7125C14.9792 12.9042 15.2167 13 15.5 13ZM15.5 10H18.5C18.7833 10 19.0208 9.90417 19.2125 9.7125C19.4042 9.52083 19.5 9.28333 19.5 9C19.5 8.71667 19.4042 8.47917 19.2125 8.2875C19.0208 8.09583 18.7833 8 18.5 8H15.5C15.2167 8 14.9792 8.09583 14.7875 8.2875C14.5958 8.47917 14.5 8.71667 14.5 9C14.5 9.28333 14.5958 9.52083 14.7875 9.7125C14.9792 9.90417 15.2167 10 15.5 10Z" fill="#1D251D"/>
</g>
</svg>
