<svg width="25" height="24" viewBox="0 0 25 24" fill="none" xmlns="http://www.w3.org/2000/svg">
<mask id="mask0_263_50522" style="mask-type:alpha" maskUnits="userSpaceOnUse" x="0" y="0" width="25" height="24">
<rect x="0.5" width="24" height="24" fill="#D9D9D9"/>
</mask>
<g mask="url(#mask0_263_50522)">
<path d="M6.5 20C5.4 20 4.45833 19.6083 3.675 18.825C2.89167 18.0417 2.5 17.1 2.5 16V8C2.5 6.9 2.89167 5.95833 3.675 5.175C4.45833 4.39167 5.4 4 6.5 4H18.5C19.6 4 20.5417 4.39167 21.325 5.175C22.1083 5.95833 22.5 6.9 22.5 8V16C22.5 17.1 22.1083 18.0417 21.325 18.825C20.5417 19.6083 19.6 20 18.5 20H6.5ZM6.5 8H18.5C18.8667 8 19.2167 8.04167 19.55 8.125C19.8833 8.20833 20.2 8.34167 20.5 8.525V8C20.5 7.45 20.3042 6.97917 19.9125 6.5875C19.5208 6.19583 19.05 6 18.5 6H6.5C5.95 6 5.47917 6.19583 5.0875 6.5875C4.69583 6.97917 4.5 7.45 4.5 8V8.525C4.8 8.34167 5.11667 8.20833 5.45 8.125C5.78333 8.04167 6.13333 8 6.5 8ZM4.65 11.25L15.775 13.95C15.925 13.9833 16.075 13.9833 16.225 13.95C16.375 13.9167 16.5167 13.85 16.65 13.75L20.125 10.85C19.9417 10.6 19.7083 10.3958 19.425 10.2375C19.1417 10.0792 18.8333 10 18.5 10H6.5C6.06667 10 5.6875 10.1125 5.3625 10.3375C5.0375 10.5625 4.8 10.8667 4.65 11.25Z" fill="#1D251D"/>
</g>
</svg>
