<svg width="25" height="24" viewBox="0 0 25 24" fill="none" xmlns="http://www.w3.org/2000/svg">
<mask id="mask0_290_100910" style="mask-type:alpha" maskUnits="userSpaceOnUse" x="0" y="0" width="25" height="24">
<rect x="0.5" width="24" height="24" fill="#D9D9D9"/>
</mask>
<g mask="url(#mask0_290_100910)">
<path d="M16.45 12.3L12.2 8.05C12.1 7.95 12.0292 7.84167 11.9875 7.725C11.9458 7.60833 11.925 7.48333 11.925 7.35C11.925 7.21667 11.9458 7.09167 11.9875 6.975C12.0292 6.85833 12.1 6.75 12.2 6.65L16.45 2.4C16.55 2.3 16.6583 2.22917 16.775 2.1875C16.8917 2.14583 17.0167 2.125 17.15 2.125C17.2833 2.125 17.4083 2.14583 17.525 2.1875C17.6417 2.22917 17.75 2.3 17.85 2.4L22.1 6.65C22.2 6.75 22.2708 6.85833 22.3125 6.975C22.3542 7.09167 22.375 7.21667 22.375 7.35C22.375 7.48333 22.3542 7.60833 22.3125 7.725C22.2708 7.84167 22.2 7.95 22.1 8.05L17.85 12.3C17.75 12.4 17.6417 12.4708 17.525 12.5125C17.4083 12.5542 17.2833 12.575 17.15 12.575C17.0167 12.575 16.8917 12.5542 16.775 12.5125C16.6583 12.4708 16.55 12.4 16.45 12.3ZM3.5 10V4C3.5 3.71667 3.59583 3.47917 3.7875 3.2875C3.97917 3.09583 4.21667 3 4.5 3H10.5C10.7833 3 11.0208 3.09583 11.2125 3.2875C11.4042 3.47917 11.5 3.71667 11.5 4V10C11.5 10.2833 11.4042 10.5208 11.2125 10.7125C11.0208 10.9042 10.7833 11 10.5 11H4.5C4.21667 11 3.97917 10.9042 3.7875 10.7125C3.59583 10.5208 3.5 10.2833 3.5 10ZM13.5 20V14C13.5 13.7167 13.5958 13.4792 13.7875 13.2875C13.9792 13.0958 14.2167 13 14.5 13H20.5C20.7833 13 21.0208 13.0958 21.2125 13.2875C21.4042 13.4792 21.5 13.7167 21.5 14V20C21.5 20.2833 21.4042 20.5208 21.2125 20.7125C21.0208 20.9042 20.7833 21 20.5 21H14.5C14.2167 21 13.9792 20.9042 13.7875 20.7125C13.5958 20.5208 13.5 20.2833 13.5 20ZM3.5 20V14C3.5 13.7167 3.59583 13.4792 3.7875 13.2875C3.97917 13.0958 4.21667 13 4.5 13H10.5C10.7833 13 11.0208 13.0958 11.2125 13.2875C11.4042 13.4792 11.5 13.7167 11.5 14V20C11.5 20.2833 11.4042 20.5208 11.2125 20.7125C11.0208 20.9042 10.7833 21 10.5 21H4.5C4.21667 21 3.97917 20.9042 3.7875 20.7125C3.59583 20.5208 3.5 20.2833 3.5 20Z" fill="#1D251D"/>
</g>
</svg>
