<svg width="25" height="24" viewBox="0 0 25 24" fill="none" xmlns="http://www.w3.org/2000/svg">
<mask id="mask0_290_100918" style="mask-type:alpha" maskUnits="userSpaceOnUse" x="0" y="0" width="25" height="24">
<rect x="0.5" width="24" height="24" fill="#D9D9D9"/>
</mask>
<g mask="url(#mask0_290_100918)">
<path d="M3.5 8C3.21667 8 2.97917 7.90417 2.7875 7.7125C2.59583 7.52083 2.5 7.28333 2.5 7V3C2.5 2.71667 2.59583 2.47917 2.7875 2.2875C2.97917 2.09583 3.21667 2 3.5 2H14.5C14.7833 2 15.0208 2.09583 15.2125 2.2875C15.4042 2.47917 15.5 2.71667 15.5 3V7C15.5 7.28333 15.4042 7.52083 15.2125 7.7125C15.0208 7.90417 14.7833 8 14.5 8H3.5ZM3.5 22C3.21667 22 2.97917 21.9042 2.7875 21.7125C2.59583 21.5208 2.5 21.2833 2.5 21V17C2.5 16.7167 2.59583 16.4792 2.7875 16.2875C2.97917 16.0958 3.21667 16 3.5 16H7.5C7.78333 16 8.02083 16.0958 8.2125 16.2875C8.40417 16.4792 8.5 16.7167 8.5 17V21C8.5 21.2833 8.40417 21.5208 8.2125 21.7125C8.02083 21.9042 7.78333 22 7.5 22H3.5ZM10.5 22C10.2167 22 9.97917 21.9042 9.7875 21.7125C9.59583 21.5208 9.5 21.2833 9.5 21V17C9.5 16.7167 9.59583 16.4792 9.7875 16.2875C9.97917 16.0958 10.2167 16 10.5 16H14.5C14.7833 16 15.0208 16.0958 15.2125 16.2875C15.4042 16.4792 15.5 16.7167 15.5 17V21C15.5 21.2833 15.4042 21.5208 15.2125 21.7125C15.0208 21.9042 14.7833 22 14.5 22H10.5ZM17.5 22C17.2167 22 16.9792 21.9042 16.7875 21.7125C16.5958 21.5208 16.5 21.2833 16.5 21V17C16.5 16.7167 16.5958 16.4792 16.7875 16.2875C16.9792 16.0958 17.2167 16 17.5 16H21.5C21.7833 16 22.0208 16.0958 22.2125 16.2875C22.4042 16.4792 22.5 16.7167 22.5 17V21C22.5 21.2833 22.4042 21.5208 22.2125 21.7125C22.0208 21.9042 21.7833 22 21.5 22H17.5ZM3.5 15C3.21667 15 2.97917 14.9042 2.7875 14.7125C2.59583 14.5208 2.5 14.2833 2.5 14V10C2.5 9.71667 2.59583 9.47917 2.7875 9.2875C2.97917 9.09583 3.21667 9 3.5 9H7.5C7.78333 9 8.02083 9.09583 8.2125 9.2875C8.40417 9.47917 8.5 9.71667 8.5 10V14C8.5 14.2833 8.40417 14.5208 8.2125 14.7125C8.02083 14.9042 7.78333 15 7.5 15H3.5ZM10.5 15C10.2167 15 9.97917 14.9042 9.7875 14.7125C9.59583 14.5208 9.5 14.2833 9.5 14V10C9.5 9.71667 9.59583 9.47917 9.7875 9.2875C9.97917 9.09583 10.2167 9 10.5 9H14.5C14.7833 9 15.0208 9.09583 15.2125 9.2875C15.4042 9.47917 15.5 9.71667 15.5 10V14C15.5 14.2833 15.4042 14.5208 15.2125 14.7125C15.0208 14.9042 14.7833 15 14.5 15H10.5ZM17.5 15C17.2167 15 16.9792 14.9042 16.7875 14.7125C16.5958 14.5208 16.5 14.2833 16.5 14V10C16.5 9.71667 16.5958 9.47917 16.7875 9.2875C16.9792 9.09583 17.2167 9 17.5 9H21.5C21.7833 9 22.0208 9.09583 22.2125 9.2875C22.4042 9.47917 22.5 9.71667 22.5 10V14C22.5 14.2833 22.4042 14.5208 22.2125 14.7125C22.0208 14.9042 21.7833 15 21.5 15H17.5ZM17.5 8C17.2167 8 16.9792 7.90417 16.7875 7.7125C16.5958 7.52083 16.5 7.28333 16.5 7V3C16.5 2.71667 16.5958 2.47917 16.7875 2.2875C16.9792 2.09583 17.2167 2 17.5 2H21.5C21.7833 2 22.0208 2.09583 22.2125 2.2875C22.4042 2.47917 22.5 2.71667 22.5 3V7C22.5 7.28333 22.4042 7.52083 22.2125 7.7125C22.0208 7.90417 21.7833 8 21.5 8H17.5Z" fill="#1D251D"/>
</g>
</svg>
