<svg width="66" height="65" viewBox="0 0 66 65" fill="none" xmlns="http://www.w3.org/2000/svg">
<path fill-rule="evenodd" clip-rule="evenodd" d="M64.9998 45.7875C64.9911 46.2471 64.6772 46.7076 64.0579 47.0604L34.9368 63.548C33.5413 64.2482 31.8973 64.2482 30.5019 63.548L1.90661 47.0604C1.29784 46.7068 0.997609 46.2471 1.00001 45.7875H1V41.8691H3.61224V43.5509L31.0278 28.0289C32.4253 27.3261 34.073 27.3261 35.4705 28.0289L62.3878 43.5278V41.8691H65.0001V45.7875H64.9998Z" fill="#FBFCFB"/>
<path d="M64.0579 47.0604L64.3043 47.4955L64.3054 47.4948L64.0579 47.0604ZM64.9998 45.7875V45.2875H64.5092L64.4999 45.778L64.9998 45.7875ZM34.9368 63.548L35.161 63.9949L35.1722 63.9893L35.1831 63.9831L34.9368 63.548ZM30.5019 63.548L30.2521 63.9812L30.2647 63.9884L30.2776 63.9949L30.5019 63.548ZM1.90661 47.0604L1.6555 47.4927L1.65686 47.4935L1.90661 47.0604ZM1.00001 45.7875L1.50001 45.7901L1.50264 45.2875H1.00001V45.7875ZM1 45.7875H0.5V46.2875H1V45.7875ZM1 41.8691V41.3691H0.5V41.8691H1ZM3.61224 41.8691H4.11224V41.3691H3.61224V41.8691ZM3.61224 43.5509H3.11224V44.4085L3.85859 43.986L3.61224 43.5509ZM31.0278 28.0289L30.8031 27.5822L30.7921 27.5877L30.7814 27.5938L31.0278 28.0289ZM35.4705 28.0289L35.72 27.5956L35.7078 27.5886L35.6952 27.5822L35.4705 28.0289ZM62.3878 43.5278L62.1383 43.9611L62.8878 44.3927V43.5278H62.3878ZM62.3878 41.8691V41.3691H61.8878V41.8691H62.3878ZM65.0001 41.8691H65.5001V41.3691H65.0001V41.8691ZM65.0001 45.7875V46.2875H65.5001V45.7875H65.0001ZM64.3054 47.4948C65.0124 47.092 65.4865 46.497 65.4997 45.7969L64.4999 45.778C64.4958 45.9972 64.3419 46.3231 63.8104 46.6259L64.3054 47.4948ZM35.1831 63.9831L64.3043 47.4955L63.8116 46.6253L34.6904 63.1129L35.1831 63.9831ZM30.2776 63.9949C31.8142 64.766 33.6245 64.766 35.161 63.9949L34.7125 63.1011C33.4582 63.7305 31.9804 63.7305 30.7261 63.1011L30.2776 63.9949ZM1.65686 47.4935L30.2521 63.9812L30.7516 63.1149L2.15636 46.6272L1.65686 47.4935ZM0.500021 45.7848C0.496349 46.4866 0.955383 47.0861 1.6555 47.4927L2.15773 46.628C1.6403 46.3275 1.49887 46.0076 1.50001 45.7901L0.500021 45.7848ZM1 46.2875H1.00001V45.2875H1V46.2875ZM0.5 41.8691V45.7875H1.5V41.8691H0.5ZM3.61224 41.3691H1V42.3691H3.61224V41.3691ZM4.11224 43.5509V41.8691H3.11224V43.5509H4.11224ZM30.7814 27.5938L3.3659 43.1158L3.85859 43.986L31.2741 28.464L30.7814 27.5938ZM35.6952 27.5822C34.1563 26.8083 32.342 26.8083 30.8031 27.5822L31.2524 28.4756C32.5086 27.8438 33.9896 27.8438 35.2459 28.4756L35.6952 27.5822ZM62.6373 43.0945L35.72 27.5956L35.221 28.4622L62.1383 43.9611L62.6373 43.0945ZM62.8878 43.5278V41.8691H61.8878V43.5278H62.8878ZM62.3878 42.3691H65.0001V41.3691H62.3878V42.3691ZM64.5001 41.8691V45.7875H65.5001V41.8691H64.5001ZM65.0001 45.2875H64.9998V46.2875H65.0001V45.2875Z" fill="#377E42"/>
<path d="M64.105 40.5982C65.3138 41.2969 65.2981 42.4354 64.0579 43.142L34.9368 59.6296C33.5413 60.3299 31.8973 60.3299 30.5019 59.6296L1.90661 43.142C0.689959 42.4354 0.705658 41.3048 1.90661 40.5982L31.0278 24.1105C32.4253 23.4077 34.073 23.4077 35.4705 24.1105L64.105 40.5982Z" fill="#FBFCFB" stroke="#377E42"/>
<path opacity="0.7" d="M55.3228 41.8709L33.1695 54.7127L10.8694 41.8709L33.0227 29.0343L55.3228 41.8709Z" fill="#FBFCFB"/>
<path d="M55.3228 26.1974L33.1695 39.0392L10.8694 26.1974L33.0227 13.3608L55.3228 26.1974Z" fill="#FBFCFB" stroke="#856C2B"/>
<path d="M55.2494 39.3422L33.0961 52.1788V39.0535L55.3228 26.1974L55.2494 39.3422Z" fill="#FBFCFB" stroke="#856C2B"/>
<path d="M33.0962 52.1788L10.7961 39.3422L10.8695 26.1974L33.1696 39.0392L33.0962 52.1788Z" fill="#FBFCFB" stroke="#856C2B"/>
<path d="M44.4031 19.682L33.1961 26.1677L21.9149 19.682L33.1219 13.1989L44.4031 19.682Z" fill="#F3F7F4"/>
<path d="M44.3659 32.5875L33.1589 39.0706V26.1749L44.403 19.6819L44.3659 32.5875Z" fill="#FBFCFB"/>
<path d="M33.196 26.1677L33.1589 39.0706L21.8777 32.5875L21.9148 19.6819L33.196 26.1677Z" fill="#FBFCFB"/>
<path d="M38.947 3.32062L33.1834 6.64259L27.3816 3.32062L33.1452 0L38.947 3.32062Z" fill="#FBFCFB"/>
<path d="M38.9278 9.93077L33.1642 13.2514V6.64629L38.9469 3.32062L38.9278 9.93077Z" fill="#FBFCFB"/>
<path d="M33.1834 6.64259L33.1643 13.2514L27.3625 9.93077L27.3816 3.32062L33.1834 6.64259Z" fill="#FBFCFB"/>
<path d="M21.8704 11.9462V32.51L33.1673 38.9783L44.3348 32.51V2.80334" stroke="#377E42" stroke-width="1.02041" stroke-linecap="round" stroke-linejoin="round" stroke-dasharray="3.27 3.27"/>
<path fill-rule="evenodd" clip-rule="evenodd" d="M44.33 3.25142C45.1981 3.25142 45.9019 2.5497 45.9019 1.68408C45.9019 0.818455 45.1981 0.11673 44.33 0.11673C43.4618 0.11673 42.7581 0.818455 42.7581 1.68408C42.7581 2.5497 43.4618 3.25142 44.33 3.25142Z" fill="#377E42"/>
<path fill-rule="evenodd" clip-rule="evenodd" d="M21.8778 14.3534C22.7459 14.3534 23.4497 13.6517 23.4497 12.7861C23.4497 11.9205 22.7459 11.2188 21.8778 11.2188C21.0097 11.2188 20.3059 11.9205 20.3059 12.7861C20.3059 13.6517 21.0097 14.3534 21.8778 14.3534Z" fill="#377E42"/>
</svg>
