<svg width="114" height="32" viewBox="0 0 114 32" fill="none" xmlns="http://www.w3.org/2000/svg">
<path d="M14.3681 30C12.9852 30 11.6355 29.7226 10.3565 29.176C7.87612 28.1156 5.96195 26.1638 4.9667 23.6802L4.9663 23.6792C3.97086 21.1946 4.01422 18.4756 5.08839 16.0232C5.69261 14.6436 6.61632 13.401 7.76422 12.4224C7.70088 10.9256 7.98541 9.4094 8.58963 8.0296C10.1941 4.3668 13.8402 2 17.8787 2C19.2606 2 20.6095 2.277 21.8877 2.823C21.8885 2.8234 21.8903 2.824 21.8903 2.824C24.3707 3.8844 26.2847 5.8362 27.2801 8.3198C28.276 10.8048 28.2328 13.524 27.1584 15.9768C26.5542 17.3564 25.6303 18.599 24.4826 19.5776C24.5461 21.0744 24.2616 22.5906 23.6572 23.9704C22.0525 27.6332 18.4064 30 14.3681 30ZM8.39582 15.496C8.02817 15.9722 7.71927 16.494 7.4749 17.0522C6.68526 18.8552 6.64989 20.8588 7.3758 22.6938C8.11149 24.5538 9.53572 26.0138 11.3864 26.805C12.3378 27.2118 13.3413 27.418 14.3689 27.418C17.3702 27.418 20.0792 25.6612 21.2707 22.9422L21.2711 22.9414C21.5138 22.3872 21.6867 21.8116 21.7868 21.225C20.5492 21.737 19.2039 22.006 17.8687 22.006C16.4863 22.006 15.137 21.7288 13.8584 21.1822C12.3738 20.5474 11.0523 19.561 10.037 18.3296C9.34591 17.4922 8.78365 16.52 8.39582 15.496ZM10.538 13.6158C11.0601 15.9316 12.6751 17.8656 14.8876 18.8116C15.8389 19.2184 16.8423 19.4246 17.8695 19.4246C19.2226 19.4246 20.5462 19.0654 21.7089 18.3846C21.1866 16.0688 19.5715 14.1348 17.3592 13.1888C16.4079 12.782 15.4047 12.5758 14.3773 12.5758C13.0242 12.5756 11.7006 12.9348 10.538 13.6158ZM14.3785 9.9938C15.761 9.9938 17.1103 10.271 18.389 10.8176C19.8736 11.4522 21.195 12.4386 22.2104 13.6702C22.9009 14.5078 23.4632 15.4798 23.8512 16.504C24.2189 16.0276 24.5278 15.5058 24.7721 14.9478C25.5682 13.1302 25.6003 11.115 24.8624 9.2738C24.1239 7.431 22.7029 5.9826 20.8609 5.195C19.9094 4.7882 18.9059 4.582 17.8783 4.582C14.8766 4.582 12.1674 6.3392 10.9763 9.0586C10.7336 9.6128 10.5607 10.1882 10.4606 10.775C11.6983 10.263 13.0434 9.9938 14.3785 9.9938Z" fill="#F3F7F4"/>
<path d="M37.4 23V13.08H39.92V23H37.4ZM38.66 11.92C38.2067 11.92 37.82 11.7733 37.5 11.48C37.1933 11.1867 37.04 10.8 37.04 10.32C37.04 9.84 37.1933 9.45333 37.5 9.16C37.82 8.86667 38.2067 8.72 38.66 8.72C39.1267 8.72 39.5133 8.86667 39.82 9.16C40.1267 9.45333 40.28 9.84 40.28 10.32C40.28 10.8 40.1267 11.1867 39.82 11.48C39.5133 11.7733 39.1267 11.92 38.66 11.92ZM41.3325 23L44.9325 18L41.3725 13.08H44.2925L46.5525 16.38H46.9125L49.1725 13.08H52.0925L48.5325 18L52.1325 23H49.1725L46.9125 19.66H46.5525L44.2925 23H41.3325ZM53.5484 23V13.08H56.0684V23H53.5484ZM54.8084 11.92C54.3551 11.92 53.9684 11.7733 53.6484 11.48C53.3418 11.1867 53.1884 10.8 53.1884 10.32C53.1884 9.84 53.3418 9.45333 53.6484 9.16C53.9684 8.86667 54.3551 8.72 54.8084 8.72C55.2751 8.72 55.6618 8.86667 55.9684 9.16C56.2751 9.45333 56.4284 9.84 56.4284 10.32C56.4284 10.8 56.2751 11.1867 55.9684 11.48C55.6618 11.7733 55.2751 11.92 54.8084 11.92ZM62.4809 23.28C61.1876 23.28 60.1276 23 59.3009 22.44C58.4743 21.88 57.9743 21.08 57.8009 20.04L60.1209 19.44C60.2143 19.9067 60.3676 20.2733 60.5809 20.54C60.8076 20.8067 61.0809 21 61.4009 21.12C61.7343 21.2267 62.0943 21.28 62.4809 21.28C63.0676 21.28 63.5009 21.18 63.7809 20.98C64.0609 20.7667 64.2009 20.5067 64.2009 20.2C64.2009 19.8933 64.0676 19.66 63.8009 19.5C63.5343 19.3267 63.1076 19.1867 62.5209 19.08L61.9609 18.98C61.2676 18.8467 60.6343 18.6667 60.0609 18.44C59.4876 18.2 59.0276 17.8733 58.6809 17.46C58.3343 17.0467 58.1609 16.5133 58.1609 15.86C58.1609 14.8733 58.5209 14.12 59.2409 13.6C59.9609 13.0667 60.9076 12.8 62.0809 12.8C63.1876 12.8 64.1076 13.0467 64.8409 13.54C65.5743 14.0333 66.0543 14.68 66.2809 15.48L63.9409 16.2C63.8343 15.6933 63.6143 15.3333 63.2809 15.12C62.9609 14.9067 62.5609 14.8 62.0809 14.8C61.6009 14.8 61.2343 14.8867 60.9809 15.06C60.7276 15.22 60.6009 15.4467 60.6009 15.74C60.6009 16.06 60.7343 16.3 61.0009 16.46C61.2676 16.6067 61.6276 16.72 62.0809 16.8L62.6409 16.9C63.3876 17.0333 64.0609 17.2133 64.6609 17.44C65.2743 17.6533 65.7543 17.9667 66.1009 18.38C66.4609 18.78 66.6409 19.3267 66.6409 20.02C66.6409 21.06 66.2609 21.8667 65.5009 22.44C64.7543 23 63.7476 23.28 62.4809 23.28ZM73.0092 23.28C72.0492 23.28 71.1759 23.08 70.3892 22.68C69.6159 22.28 69.0026 21.7 68.5492 20.94C68.0959 20.18 67.8692 19.26 67.8692 18.18V17.9C67.8692 16.82 68.0959 15.9 68.5492 15.14C69.0026 14.38 69.6159 13.8 70.3892 13.4C71.1759 13 72.0492 12.8 73.0092 12.8C73.9559 12.8 74.7692 12.9667 75.4492 13.3C76.1292 13.6333 76.6759 14.0933 77.0892 14.68C77.5159 15.2533 77.7959 15.9067 77.9292 16.64L75.4892 17.16C75.4359 16.76 75.3159 16.4 75.1292 16.08C74.9426 15.76 74.6759 15.5067 74.3292 15.32C73.9959 15.1333 73.5759 15.04 73.0692 15.04C72.5626 15.04 72.1026 15.1533 71.6892 15.38C71.2892 15.5933 70.9692 15.92 70.7292 16.36C70.5026 16.7867 70.3892 17.3133 70.3892 17.94V18.14C70.3892 18.7667 70.5026 19.3 70.7292 19.74C70.9692 20.1667 71.2892 20.4933 71.6892 20.72C72.1026 20.9333 72.5626 21.04 73.0692 21.04C73.8292 21.04 74.4026 20.8467 74.7892 20.46C75.1892 20.06 75.4426 19.54 75.5492 18.9L77.9892 19.48C77.8159 20.1867 77.5159 20.8333 77.0892 21.42C76.6759 21.9933 76.1292 22.4467 75.4492 22.78C74.7692 23.1133 73.9559 23.28 73.0092 23.28ZM84.288 23.28C83.3013 23.28 82.4146 23.08 81.628 22.68C80.8413 22.28 80.2213 21.7 79.768 20.94C79.3146 20.18 79.088 19.2667 79.088 18.2V17.88C79.088 16.8133 79.3146 15.9 79.768 15.14C80.2213 14.38 80.8413 13.8 81.628 13.4C82.4146 13 83.3013 12.8 84.288 12.8C85.2746 12.8 86.1613 13 86.948 13.4C87.7346 13.8 88.3546 14.38 88.808 15.14C89.2613 15.9 89.488 16.8133 89.488 17.88V18.2C89.488 19.2667 89.2613 20.18 88.808 20.94C88.3546 21.7 87.7346 22.28 86.948 22.68C86.1613 23.08 85.2746 23.28 84.288 23.28ZM84.288 21.04C85.0613 21.04 85.7013 20.7933 86.208 20.3C86.7146 19.7933 86.968 19.0733 86.968 18.14V17.94C86.968 17.0067 86.7146 16.2933 86.208 15.8C85.7146 15.2933 85.0746 15.04 84.288 15.04C83.5146 15.04 82.8746 15.2933 82.368 15.8C81.8613 16.2933 81.608 17.0067 81.608 17.94V18.14C81.608 19.0733 81.8613 19.7933 82.368 20.3C82.8746 20.7933 83.5146 21.04 84.288 21.04ZM91.3141 27V13.08H93.7941V14.28H94.1541C94.3807 13.8933 94.7341 13.5533 95.2141 13.26C95.6941 12.9533 96.3807 12.8 97.2741 12.8C98.0741 12.8 98.8141 13 99.4941 13.4C100.174 13.7867 100.721 14.36 101.134 15.12C101.547 15.88 101.754 16.8 101.754 17.88V18.2C101.754 19.28 101.547 20.2 101.134 20.96C100.721 21.72 100.174 22.3 99.4941 22.7C98.8141 23.0867 98.0741 23.28 97.2741 23.28C96.6741 23.28 96.1674 23.2067 95.7541 23.06C95.3541 22.9267 95.0274 22.7533 94.7741 22.54C94.5341 22.3133 94.3407 22.0867 94.1941 21.86H93.8341V27H91.3141ZM96.5141 21.08C97.3007 21.08 97.9474 20.8333 98.4541 20.34C98.9741 19.8333 99.2341 19.1 99.2341 18.14V17.94C99.2341 16.98 98.9741 16.2533 98.4541 15.76C97.9341 15.2533 97.2874 15 96.5141 15C95.7407 15 95.0941 15.2533 94.5741 15.76C94.0541 16.2533 93.7941 16.98 93.7941 17.94V18.14C93.7941 19.1 94.0541 19.8333 94.5741 20.34C95.0941 20.8333 95.7407 21.08 96.5141 21.08ZM108.088 23.28C107.101 23.28 106.228 23.0733 105.468 22.66C104.721 22.2333 104.135 21.64 103.708 20.88C103.295 20.1067 103.088 19.2 103.088 18.16V17.92C103.088 16.88 103.295 15.98 103.708 15.22C104.121 14.4467 104.701 13.8533 105.448 13.44C106.195 13.0133 107.061 12.8 108.048 12.8C109.021 12.8 109.868 13.02 110.588 13.46C111.308 13.8867 111.868 14.4867 112.268 15.26C112.668 16.02 112.868 16.9067 112.868 17.92V18.78H105.648C105.675 19.46 105.928 20.0133 106.408 20.44C106.888 20.8667 107.475 21.08 108.168 21.08C108.875 21.08 109.395 20.9267 109.728 20.62C110.061 20.3133 110.315 19.9733 110.488 19.6L112.548 20.68C112.361 21.0267 112.088 21.4067 111.728 21.82C111.381 22.22 110.915 22.5667 110.328 22.86C109.741 23.14 108.995 23.28 108.088 23.28ZM105.668 16.9H110.308C110.255 16.3267 110.021 15.8667 109.608 15.52C109.208 15.1733 108.681 15 108.028 15C107.348 15 106.808 15.1733 106.408 15.52C106.008 15.8667 105.761 16.3267 105.668 16.9Z" fill="#F3F7F4"/>
</svg>
