<svg width="118" height="32" viewBox="0 0 118 32" fill="none" xmlns="http://www.w3.org/2000/svg">
<path d="M14.3681 30C12.9852 30 11.6355 29.7226 10.3565 29.176C7.87612 28.1156 5.96195 26.1638 4.9667 23.6802L4.9663 23.6792C3.97086 21.1946 4.01422 18.4756 5.08839 16.0232C5.69261 14.6436 6.61632 13.401 7.76422 12.4224C7.70088 10.9256 7.98541 9.4094 8.58963 8.0296C10.1941 4.3668 13.8402 2 17.8787 2C19.2606 2 20.6095 2.277 21.8877 2.823C21.8885 2.8234 21.8903 2.824 21.8903 2.824C24.3707 3.8844 26.2847 5.8362 27.2801 8.3198C28.276 10.8048 28.2328 13.524 27.1584 15.9768C26.5542 17.3564 25.6303 18.599 24.4826 19.5776C24.5461 21.0744 24.2616 22.5906 23.6572 23.9704C22.0525 27.6332 18.4064 30 14.3681 30ZM8.39582 15.496C8.02817 15.9722 7.71927 16.494 7.4749 17.0522C6.68526 18.8552 6.64989 20.8588 7.3758 22.6938C8.11149 24.5538 9.53572 26.0138 11.3864 26.805C12.3378 27.2118 13.3413 27.418 14.3689 27.418C17.3702 27.418 20.0792 25.6612 21.2707 22.9422L21.2711 22.9414C21.5138 22.3872 21.6867 21.8116 21.7868 21.225C20.5492 21.737 19.2039 22.006 17.8687 22.006C16.4863 22.006 15.137 21.7288 13.8584 21.1822C12.3738 20.5474 11.0523 19.561 10.037 18.3296C9.34591 17.4922 8.78365 16.52 8.39582 15.496ZM10.538 13.6158C11.0601 15.9316 12.6751 17.8656 14.8876 18.8116C15.8389 19.2184 16.8423 19.4246 17.8695 19.4246C19.2226 19.4246 20.5462 19.0654 21.7089 18.3846C21.1866 16.0688 19.5715 14.1348 17.3592 13.1888C16.4079 12.782 15.4047 12.5758 14.3773 12.5758C13.0242 12.5756 11.7006 12.9348 10.538 13.6158ZM14.3785 9.9938C15.761 9.9938 17.1103 10.271 18.389 10.8176C19.8736 11.4522 21.195 12.4386 22.2104 13.6702C22.9009 14.5078 23.4632 15.4798 23.8512 16.504C24.2189 16.0276 24.5278 15.5058 24.7721 14.9478C25.5682 13.1302 25.6003 11.115 24.8624 9.2738C24.1239 7.431 22.7029 5.9826 20.8609 5.195C19.9094 4.7882 18.9059 4.582 17.8783 4.582C14.8766 4.582 12.1674 6.3392 10.9763 9.0586C10.7336 9.6128 10.5607 10.1882 10.4606 10.775C11.6983 10.263 13.0434 9.9938 14.3785 9.9938Z" fill="#373937"/>
<path d="M37.4 23V13.08H39.92V23H37.4ZM38.66 11.92C38.2067 11.92 37.82 11.7733 37.5 11.48C37.1933 11.1867 37.04 10.8 37.04 10.32C37.04 9.84 37.1933 9.45333 37.5 9.16C37.82 8.86667 38.2067 8.72 38.66 8.72C39.1267 8.72 39.5133 8.86667 39.82 9.16C40.1267 9.45333 40.28 9.84 40.28 10.32C40.28 10.8 40.1267 11.1867 39.82 11.48C39.5133 11.7733 39.1267 11.92 38.66 11.92ZM41.8325 23L45.4325 18L41.8725 13.08H44.7925L47.0525 16.38H47.4125L49.6725 13.08H52.5925L49.0325 18L52.6325 23H49.6725L47.4125 19.66H47.0525L44.7925 23H41.8325ZM54.5484 23V13.08H57.0684V23H54.5484ZM55.8084 11.92C55.3551 11.92 54.9684 11.7733 54.6484 11.48C54.3418 11.1867 54.1884 10.8 54.1884 10.32C54.1884 9.84 54.3418 9.45333 54.6484 9.16C54.9684 8.86667 55.3551 8.72 55.8084 8.72C56.2751 8.72 56.6618 8.86667 56.9684 9.16C57.2751 9.45333 57.4284 9.84 57.4284 10.32C57.4284 10.8 57.2751 11.1867 56.9684 11.48C56.6618 11.7733 56.2751 11.92 55.8084 11.92ZM63.9809 23.28C62.6876 23.28 61.6276 23 60.8009 22.44C59.9743 21.88 59.4743 21.08 59.3009 20.04L61.6209 19.44C61.7143 19.9067 61.8676 20.2733 62.0809 20.54C62.3076 20.8067 62.5809 21 62.9009 21.12C63.2343 21.2267 63.5943 21.28 63.9809 21.28C64.5676 21.28 65.0009 21.18 65.2809 20.98C65.5609 20.7667 65.7009 20.5067 65.7009 20.2C65.7009 19.8933 65.5676 19.66 65.3009 19.5C65.0343 19.3267 64.6076 19.1867 64.0209 19.08L63.4609 18.98C62.7676 18.8467 62.1343 18.6667 61.5609 18.44C60.9876 18.2 60.5276 17.8733 60.1809 17.46C59.8343 17.0467 59.6609 16.5133 59.6609 15.86C59.6609 14.8733 60.0209 14.12 60.7409 13.6C61.4609 13.0667 62.4076 12.8 63.5809 12.8C64.6876 12.8 65.6076 13.0467 66.3409 13.54C67.0743 14.0333 67.5543 14.68 67.7809 15.48L65.4409 16.2C65.3343 15.6933 65.1143 15.3333 64.7809 15.12C64.4609 14.9067 64.0609 14.8 63.5809 14.8C63.1009 14.8 62.7343 14.8867 62.4809 15.06C62.2276 15.22 62.1009 15.4467 62.1009 15.74C62.1009 16.06 62.2343 16.3 62.5009 16.46C62.7676 16.6067 63.1276 16.72 63.5809 16.8L64.1409 16.9C64.8876 17.0333 65.5609 17.2133 66.1609 17.44C66.7743 17.6533 67.2543 17.9667 67.6009 18.38C67.9609 18.78 68.1409 19.3267 68.1409 20.02C68.1409 21.06 67.7609 21.8667 67.0009 22.44C66.2543 23 65.2476 23.28 63.9809 23.28ZM75.0092 23.28C74.0492 23.28 73.1759 23.08 72.3892 22.68C71.6159 22.28 71.0026 21.7 70.5492 20.94C70.0959 20.18 69.8692 19.26 69.8692 18.18V17.9C69.8692 16.82 70.0959 15.9 70.5492 15.14C71.0026 14.38 71.6159 13.8 72.3892 13.4C73.1759 13 74.0492 12.8 75.0092 12.8C75.9559 12.8 76.7692 12.9667 77.4492 13.3C78.1292 13.6333 78.6759 14.0933 79.0892 14.68C79.5159 15.2533 79.7959 15.9067 79.9292 16.64L77.4892 17.16C77.4359 16.76 77.3159 16.4 77.1292 16.08C76.9426 15.76 76.6759 15.5067 76.3292 15.32C75.9959 15.1333 75.5759 15.04 75.0692 15.04C74.5626 15.04 74.1026 15.1533 73.6892 15.38C73.2892 15.5933 72.9692 15.92 72.7292 16.36C72.5026 16.7867 72.3892 17.3133 72.3892 17.94V18.14C72.3892 18.7667 72.5026 19.3 72.7292 19.74C72.9692 20.1667 73.2892 20.4933 73.6892 20.72C74.1026 20.9333 74.5626 21.04 75.0692 21.04C75.8292 21.04 76.4026 20.8467 76.7892 20.46C77.1892 20.06 77.4426 19.54 77.5492 18.9L79.9892 19.48C79.8159 20.1867 79.5159 20.8333 79.0892 21.42C78.6759 21.9933 78.1292 22.4467 77.4492 22.78C76.7692 23.1133 75.9559 23.28 75.0092 23.28ZM86.788 23.28C85.8013 23.28 84.9146 23.08 84.128 22.68C83.3413 22.28 82.7213 21.7 82.268 20.94C81.8146 20.18 81.588 19.2667 81.588 18.2V17.88C81.588 16.8133 81.8146 15.9 82.268 15.14C82.7213 14.38 83.3413 13.8 84.128 13.4C84.9146 13 85.8013 12.8 86.788 12.8C87.7746 12.8 88.6613 13 89.448 13.4C90.2346 13.8 90.8546 14.38 91.308 15.14C91.7613 15.9 91.988 16.8133 91.988 17.88V18.2C91.988 19.2667 91.7613 20.18 91.308 20.94C90.8546 21.7 90.2346 22.28 89.448 22.68C88.6613 23.08 87.7746 23.28 86.788 23.28ZM86.788 21.04C87.5613 21.04 88.2013 20.7933 88.708 20.3C89.2146 19.7933 89.468 19.0733 89.468 18.14V17.94C89.468 17.0067 89.2146 16.2933 88.708 15.8C88.2146 15.2933 87.5746 15.04 86.788 15.04C86.0146 15.04 85.3746 15.2933 84.868 15.8C84.3613 16.2933 84.108 17.0067 84.108 17.94V18.14C84.108 19.0733 84.3613 19.7933 84.868 20.3C85.3746 20.7933 86.0146 21.04 86.788 21.04ZM94.3141 27V13.08H96.7941V14.28H97.1541C97.3807 13.8933 97.7341 13.5533 98.2141 13.26C98.6941 12.9533 99.3807 12.8 100.274 12.8C101.074 12.8 101.814 13 102.494 13.4C103.174 13.7867 103.721 14.36 104.134 15.12C104.547 15.88 104.754 16.8 104.754 17.88V18.2C104.754 19.28 104.547 20.2 104.134 20.96C103.721 21.72 103.174 22.3 102.494 22.7C101.814 23.0867 101.074 23.28 100.274 23.28C99.6741 23.28 99.1674 23.2067 98.7541 23.06C98.3541 22.9267 98.0274 22.7533 97.7741 22.54C97.5341 22.3133 97.3407 22.0867 97.1941 21.86H96.8341V27H94.3141ZM99.5141 21.08C100.301 21.08 100.947 20.8333 101.454 20.34C101.974 19.8333 102.234 19.1 102.234 18.14V17.94C102.234 16.98 101.974 16.2533 101.454 15.76C100.934 15.2533 100.287 15 99.5141 15C98.7407 15 98.0941 15.2533 97.5741 15.76C97.0541 16.2533 96.7941 16.98 96.7941 17.94V18.14C96.7941 19.1 97.0541 19.8333 97.5741 20.34C98.0941 20.8333 98.7407 21.08 99.5141 21.08ZM111.588 23.28C110.601 23.28 109.728 23.0733 108.968 22.66C108.221 22.2333 107.635 21.64 107.208 20.88C106.795 20.1067 106.588 19.2 106.588 18.16V17.92C106.588 16.88 106.795 15.98 107.208 15.22C107.621 14.4467 108.201 13.8533 108.948 13.44C109.695 13.0133 110.561 12.8 111.548 12.8C112.521 12.8 113.368 13.02 114.088 13.46C114.808 13.8867 115.368 14.4867 115.768 15.26C116.168 16.02 116.368 16.9067 116.368 17.92V18.78H109.148C109.175 19.46 109.428 20.0133 109.908 20.44C110.388 20.8667 110.975 21.08 111.668 21.08C112.375 21.08 112.895 20.9267 113.228 20.62C113.561 20.3133 113.815 19.9733 113.988 19.6L116.048 20.68C115.861 21.0267 115.588 21.4067 115.228 21.82C114.881 22.22 114.415 22.5667 113.828 22.86C113.241 23.14 112.495 23.28 111.588 23.28ZM109.168 16.9H113.808C113.755 16.3267 113.521 15.8667 113.108 15.52C112.708 15.1733 112.181 15 111.528 15C110.848 15 110.308 15.1733 109.908 15.52C109.508 15.8667 109.261 16.3267 109.168 16.9Z" fill="#0A0F0C"/>
</svg>
